<svg width="418" height="414" viewBox="0 0 418 414" fill="none" xmlns="http://www.w3.org/2000/svg">
<path d="M0 334.7L198.838 413.216V156.936L0 82.3593V334.7Z" fill="#EBE9F5"/>
<path d="M0 334.855L198.838 413.216L397.676 334.7L198.838 252.341L0 334.855Z" fill="#324F86"/>
<path d="M0 316.667L198.838 395.027L397.676 316.512L198.838 234.153L0 316.667Z" fill="#9896FF"/>
<path d="M395.104 308.205C395.173 306.02 395.568 303.879 395.981 301.738L215.713 227.075L16.8923 309.589L215.73 387.95L396.919 316.4C395.542 314.001 395.026 310.724 395.104 308.205Z" fill="#2B354A"/>
<path d="M0 276.403L198.838 354.763L397.676 276.248L198.838 193.889L0 276.403Z" fill="#936BF1"/>
<path d="M392.369 260.081L215.722 186.914L16.8923 269.429L215.73 347.789L392.885 277.831C390.692 272.653 391.879 265.825 392.369 260.081Z" fill="#303C51"/>
<path d="M0 236.139L198.838 314.5L397.676 235.984L198.838 153.625L0 236.139Z" fill="#CD7093"/>
<path d="M198.838 160.883V413.216L397.676 334.7V82.3593L198.838 160.883Z" fill="#EBE9F5"/>
<path d="M0 82.5227L198.838 160.883L397.676 82.3593L198.838 0L0 82.5227Z" fill="#324F85"/>
<path opacity="0.14" d="M0 294.488L16.8923 309.589L27.3254 305.255L0 294.488Z" fill="#2B354A"/>
<path d="M323.405 268.07L340.436 190.401L360.059 182.857L333.004 293.213L313.183 300.832L301.547 238.439L282.074 312.79L262.254 320.409L246.912 226.35L266.535 218.807L275.306 286.421L295.216 207.783L311.886 201.375L323.405 268.07Z" fill="#324F85"/>
<path d="M280.872 88.8641L261.255 96.6182L221.02 79.1224L182.767 94.243L223.003 111.739L203.386 119.493L109.502 78.6694L129.119 70.9153L167.163 87.4577L205.415 72.3372L167.372 55.7948L186.989 48.0407L280.872 88.8641Z" fill="#F7F7FF"/>
<path d="M0 236.139V254.336L198.838 332.697V314.5L0 236.139Z" fill="#D25484"/>
<path d="M0 276.291V294.488L198.838 372.849V354.652L0 276.291Z" fill="#7845F2"/>
<path d="M0 316.555V334.743L198.838 413.104V394.915L0 316.555Z" fill="#6764F9"/>
<path opacity="0.08" d="M0 294.488L16.8923 309.589L27.3254 305.255L0 294.488Z" fill="#2B354A"/>
<path opacity="0.08" d="M0 254.336L16.8923 269.437L27.3254 265.103L0 254.336Z" fill="#2B354A"/>
<path opacity="0.07" d="M0 82.3593L118.651 186.914L191.991 156.919L0 82.3593Z" fill="#2B354A"/>
<path opacity="0.54" d="M118.651 186.914L198.838 218.536V160.883L191.992 156.919L118.651 186.914Z" fill="#2B354A"/>
</svg>
