<svg id="Layer_1" data-name="Layer 1" xmlns="http://www.w3.org/2000/svg" viewBox="0 0 397.68 413.22"><defs><style>.cls-1{fill:#ebe9f5;}.cls-2{fill:#324f86;}.cls-3{fill:#9896ff;}.cls-14,.cls-15,.cls-16,.cls-4,.cls-9{fill:#2b354a;}.cls-5{fill:#936bf1;}.cls-6{fill:#303c51;}.cls-7{fill:#cd7093;}.cls-8{fill:#324f85;}.cls-14,.cls-15,.cls-16,.cls-9{isolation:isolate;}.cls-9{opacity:0.14;}.cls-10{fill:#f7f7ff;}.cls-11{fill:#d25484;}.cls-12{fill:#7845f2;}.cls-13{fill:#6764f9;}.cls-14{opacity:0.08;}.cls-15{opacity:0.07;}.cls-16{opacity:0.54;}</style></defs><path class="cls-1" d="M57.16,359.13,256,437.64V181.36L57.16,106.79Z" transform="translate(-57.16 -24.43)"/><path class="cls-2" d="M57.16,359.28,256,437.64l198.84-78.51L256,276.77Z" transform="translate(-57.16 -24.43)"/><path class="cls-3" d="M57.16,341.09,256,419.45l198.84-78.51L256,258.58Z" transform="translate(-57.16 -24.43)"/><path class="cls-4" d="M452.27,332.63a40.28,40.28,0,0,1,.87-6.46L272.88,251.5,74.05,334l198.84,78.36,181.19-71.55A16.46,16.46,0,0,1,452.27,332.63Z" transform="translate(-57.16 -24.43)"/><path class="cls-5" d="M57.16,300.83,256,379.19l198.84-78.51L256,218.32Z" transform="translate(-57.16 -24.43)"/><path class="cls-6" d="M449.53,284.51,272.88,211.34,74.05,293.86l198.84,78.36,177.16-70C447.85,297.08,449,290.25,449.53,284.51Z" transform="translate(-57.16 -24.43)"/><path class="cls-7" d="M57.16,260.57,256,338.93l198.84-78.52L256,178.05Z" transform="translate(-57.16 -24.43)"/><path class="cls-1" d="M256,185.31V437.64l198.84-78.51V106.79Z" transform="translate(-57.16 -24.43)"/><path class="cls-8" d="M57.16,107,256,185.31l198.84-78.52L256,24.43Z" transform="translate(-57.16 -24.43)"/><path class="cls-9" d="M57.16,318.92,74.05,334l10.44-4.34Z" transform="translate(-57.16 -24.43)"/><path class="cls-8" d="M320.94,237.24l-10,3.84,1.27-22.23-19.48,7.49-1.27,22.23-10,3.84,3-51.86,10-3.85-1.21,21,19.49-7.49,1.2-21,10-3.84Zm18.28-7-9.65,3.71,3.13-54.71,9.66-3.71Zm18.12-7L347.68,227l3.14-54.71,9.66-3.72Zm7.59-22.11a31.39,31.39,0,0,1,2.65-11,29.33,29.33,0,0,1,6.32-9.23,26.67,26.67,0,0,1,9.17-5.92q7.29-2.81,11.61.2t4.42,11l-.08,2.61a30.8,30.8,0,0,1-5.45,16,27,27,0,0,1-12.72,10.12q-7.8,3-12.15-.56t-3.8-12.75Zm9.58-3q-.31,5.49,1.45,7.67c1.18,1.43,3,1.68,5.36.76a11.16,11.16,0,0,0,5.63-5q2.13-3.65,2.49-9.95c.2-3.58-.29-6.11-1.49-7.58s-3-1.74-5.36-.83a11,11,0,0,0-5.63,5.06A22.29,22.29,0,0,0,374.51,198.18ZM315.18,308.79l8.64-39.41,10-3.83-13.73,56L310,325.42l-5.9-31.67-9.88,37.73-10.06,3.87-7.79-47.73,10-3.83,4.45,34.31,10.11-39.9,8.45-3.25Zm41.59-29.61a26.71,26.71,0,0,0-3.44,1.05,12.23,12.23,0,0,0-7.39,6.7l-1.45,25.22-9.62,3.7,2.21-38.54,9.09-3.49v4.49q3.21-6.42,8.33-8.39a9.88,9.88,0,0,1,3-.69Zm13.17,23.19-9.66,3.72,3.14-54.72,9.65-3.71Zm7.58-22a33.94,33.94,0,0,1,4.59-15.8,21.31,21.31,0,0,1,10.66-9.32q5.26-2,8.45.86l1.13-19.66,9.66-3.72-3.14,54.72-8.69,3.34-.23-3.92a19.66,19.66,0,0,1-9.54,8.37q-6.36,2.44-9.92-1.41C378.15,291.18,377.15,286.7,377.52,280.33Zm9.58-2.95c-.21,3.61.23,6.15,1.29,7.62s2.72,1.78,5,.92a11.48,11.48,0,0,0,6.52-6.45l.87-15.21q-1.56-3.33-6-1.63Q387.79,265.3,387.1,277.38Zm30,1.91a8.18,8.18,0,0,1,1.76-4.58,9.19,9.19,0,0,1,4-3,4.1,4.1,0,0,1,3.81,0c1,.62,1.43,1.75,1.34,3.38a8.15,8.15,0,0,1-1.76,4.55,9.16,9.16,0,0,1-4,3,4.16,4.16,0,0,1-3.82,0C417.46,282,417,280.9,417.12,279.29Z" transform="translate(-57.16 -24.43)"/><path class="cls-10" d="M181.28,110l-7.46,3-15.31-6.66L144,112l15.3,6.66-7.46,3L116.1,106.09l7.46-3L138,109.43l14.55-5.75-14.47-6.29,7.46-3Zm13.65-5.4-7.21,2.85L150.05,91l7.21-2.85Zm13.53-5.35-7.21,2.85L163.58,85.69l7.21-2.85Zm-8.69-7.78a14.25,14.25,0,0,1-5.49-3.67,3.06,3.06,0,0,1-.36-3.83c.81-1.26,2.5-2.39,5.05-3.4a31.77,31.77,0,0,1,12.16-2.08,36.65,36.65,0,0,1,12.79,2.36l1.86.77c4.07,1.77,6.19,3.64,6.35,5.63s-1.71,3.73-5.59,5.26a32.13,32.13,0,0,1-13,2.08,36.43,36.43,0,0,1-13.47-3Zm7.71-2.62a23,23,0,0,0,7.23,2,13.4,13.4,0,0,0,6.11-.77c1.74-.69,2.45-1.51,2.12-2.47s-2-2.07-4.86-3.33a23.08,23.08,0,0,0-7.21-1.91,13.37,13.37,0,0,0-6.16.74c-1.76.7-2.44,1.53-2,2.5S204.65,87.59,207.48,88.82Zm20.92,42.69-20.53-13,7.43-2.94L243,134.3l-7.51,3-29.78-8.06,18,12.72-7.51,3-43.74-12.36,7.44-2.94,30.25,9.09-19.39-13.38,6.32-2.5Zm20.88-16.21c-1.11.33-2,.64-2.78.94q-4.08,1.61-2.63,3.29l17.36,7.55-7.18,2.84-26.54-11.53,6.79-2.69,3.36,1.3q-1.49-2.44,2.34-4a16.26,16.26,0,0,1,2.56-.75Zm31,4.27L273,122.42,235.35,106l7.22-2.85Zm-8.64-7.76q-6.21-2.7-7.08-5.41t4.06-4.66a22.67,22.67,0,0,1,9.38-1.3l-13.53-5.89,7.21-2.85,37.67,16.38-6.49,2.57-3.17-1.09c.42,1.66-.79,3.06-3.6,4.17a25.9,25.9,0,0,1-11.32,1.42A40,40,0,0,1,271.6,111.81Zm7.7-2.62a24,24,0,0,0,7,2,12.26,12.26,0,0,0,5.82-.65q3.33-1.32,1.93-3.07l-10.47-4.55a13.85,13.85,0,0,0-7.43.63Q271,105.58,279.3,109.19Zm32.47-5c-1.13-.49-1.66-1-1.6-1.65s.69-1.15,1.85-1.61a10.64,10.64,0,0,1,4-.69,9.74,9.74,0,0,1,3.91.73c1.12.48,1.64,1,1.58,1.64s-.71,1.13-1.9,1.61a11,11,0,0,1-3.94.7A9.86,9.86,0,0,1,311.77,104.22Z" transform="translate(-57.16 -24.43)"/><path class="cls-11" d="M57.16,260.57v18.19L256,357.12V338.93Z" transform="translate(-57.16 -24.43)"/><path class="cls-12" d="M57.16,300.72v18.2L256,397.28v-18.2Z" transform="translate(-57.16 -24.43)"/><path class="cls-13" d="M57.16,341v18.19L256,437.53V419.34Z" transform="translate(-57.16 -24.43)"/><path class="cls-14" d="M57.16,318.92,74.05,334l10.44-4.34Z" transform="translate(-57.16 -24.43)"/><path class="cls-14" d="M57.16,278.76l16.89,15.1,10.44-4.33Z" transform="translate(-57.16 -24.43)"/><path class="cls-10" d="M68.92,276.54l-3.72-1.46-.09,4.2-1.17-.46.21-9.52,5.49,2.16,0,1-4.32-1.71-.07,3.26,3.72,1.47Zm5.68,5.78a1.84,1.84,0,0,1-1.94.07,3.23,3.23,0,0,1-1.6-1.29,4,4,0,0,1-.51-2.17l.1-4.6,1.13.44-.1,4.58a1.94,1.94,0,0,0,1.18,2.08c.86.34,1.44.22,1.74-.35l.11-5.15,1.13.44-.15,7.08L74.61,283Zm4,2.29-1.13-.44.21-10.05,1.13.44Zm3,1.19-1.13-.44.21-10.05,1.13.45Z" transform="translate(-57.16 -24.43)"/><path class="cls-10" d="M66.51,317a9.1,9.1,0,0,1-2.16-2A3.21,3.21,0,0,1,63.7,313a1.59,1.59,0,0,1,.87-1.53,2.68,2.68,0,0,1,2.2.12,5.06,5.06,0,0,1,1.62,1,4.66,4.66,0,0,1,1.08,1.48,3.59,3.59,0,0,1,.37,1.61l-1.18-.46a2.52,2.52,0,0,0-.48-1.55,3,3,0,0,0-1.43-1.07,1.77,1.77,0,0,0-1.36-.12.94.94,0,0,0-.51.94,1.84,1.84,0,0,0,.44,1.17A7.22,7.22,0,0,0,66.87,316a11.44,11.44,0,0,1,1.71,1.42,4.74,4.74,0,0,1,.91,1.3,3.27,3.27,0,0,1,.27,1.38,1.53,1.53,0,0,1-.88,1.53,3,3,0,0,1-2.26-.19,5.67,5.67,0,0,1-1.69-1.05,5,5,0,0,1-1.21-1.51,3.58,3.58,0,0,1-.39-1.66l1.18.47a2.41,2.41,0,0,0,.56,1.6,3.75,3.75,0,0,0,1.57,1.12,2,2,0,0,0,1.43.15.89.89,0,0,0,.52-.91,1.88,1.88,0,0,0-.44-1.26A7.75,7.75,0,0,0,66.51,317Zm6.24-2.12,0,1.71L74,317l0,.94-1.23-.49-.1,4.39a1.49,1.49,0,0,0,.15.71,1.1,1.1,0,0,0,.56.43,3.06,3.06,0,0,0,.54.13l0,1a3.25,3.25,0,0,1-.87-.21,2.2,2.2,0,0,1-1.13-.94,2.79,2.79,0,0,1-.35-1.54l.09-4.39-1.2-.47,0-.94,1.2.48,0-1.72Zm6.43,11.39a3.24,3.24,0,0,1-.14-.8,1.9,1.9,0,0,1-1.89.13,3.49,3.49,0,0,1-1.59-1.22,2.82,2.82,0,0,1-.59-1.75,1.37,1.37,0,0,1,.81-1.4,3.16,3.16,0,0,1,2.22.25l1.1.43v-.55a1.91,1.91,0,0,0-.33-1.15,2.18,2.18,0,0,0-1-.79,1.35,1.35,0,0,0-1-.07.64.64,0,0,0-.43.63l-1.13-.45a1.24,1.24,0,0,1,.37-.88,1.51,1.51,0,0,1,1-.41,3,3,0,0,1,1.33.23,3.88,3.88,0,0,1,1.77,1.32,3.23,3.23,0,0,1,.64,1.95l-.07,3.25a4.69,4.69,0,0,0,.2,1.64v.11Zm-1.85-1.65a1.79,1.79,0,0,0,1,.1,1,1,0,0,0,.71-.5l0-1.45-.88-.35c-1.38-.54-2.08-.38-2.1.49a1.61,1.61,0,0,0,.33,1A2.12,2.12,0,0,0,77.33,324.57Zm7.23,2.91a1.31,1.31,0,0,0,1.06,0,.9.9,0,0,0,.52-.78l1.06.42a1.57,1.57,0,0,1-1.39,1.5,2.5,2.5,0,0,1-1.27-.17,4.32,4.32,0,0,1-2.13-1.81,5.35,5.35,0,0,1-.73-3v-.21a3.81,3.81,0,0,1,.39-1.7,1.74,1.74,0,0,1,1-.85,2.59,2.59,0,0,1,1.58.17,4.11,4.11,0,0,1,1.82,1.44,3.73,3.73,0,0,1,.74,2.16l-1.06-.42a2.44,2.44,0,0,0-.46-1.31,2.36,2.36,0,0,0-1.07-.87,1.15,1.15,0,0,0-1.34.14,2.51,2.51,0,0,0-.51,1.73v.23a4.23,4.23,0,0,0,.43,2.07A2.54,2.54,0,0,0,84.56,327.48Zm5.77-.17-.72.52-.06,2.48-1.12-.44.21-10.05,1.13.44-.13,6.08.62-.54,2.1-1.52,1.37.54-2.63,1.95L93.88,332l-1.33-.52Z" transform="translate(-57.16 -24.43)"/><path class="cls-10" d="M65.92,357l.14,1.33.28-1,1.89-5.95,1,.39,1.57,7.32L71,360.3l.21-1.2,1.52-6,1.17.47-2.35,8.67-1.07-.42-1.67-7.66-.13-.78-.15.67-2,6.2-1.07-.42-1.94-10.37,1.17.46Zm11.45,7.67a4.49,4.49,0,0,1-2.16-1.8,5,5,0,0,1-.79-2.86v-.22a3.54,3.54,0,0,1,.41-1.73,1.77,1.77,0,0,1,1.07-.88,2.16,2.16,0,0,1,1.47.1,3.84,3.84,0,0,1,2,1.7,5.44,5.44,0,0,1,.66,2.88v.5l-4.46-1.75a3.5,3.5,0,0,0,.53,1.91,2.8,2.8,0,0,0,1.37,1.19,1.77,1.77,0,0,0,1,.14,1.6,1.6,0,0,0,.74-.41l.67.85A2,2,0,0,1,77.37,364.68Zm0-6.4a1.13,1.13,0,0,0-1.15.09,1.8,1.8,0,0,0-.61,1.27l3.3,1.3v-.1a3.23,3.23,0,0,0-.44-1.6A2.25,2.25,0,0,0,77.36,358.28Zm9.54,6.54a3.3,3.3,0,0,1-.75,2.34,1.62,1.62,0,0,1-1.88.24,3.59,3.59,0,0,1-1.91-1.71l-.08.8-1-.41.21-10,1.13.44-.08,3.75a1.69,1.69,0,0,1,1.9-.17,3.55,3.55,0,0,1,1.86,1.71,6,6,0,0,1,.63,2.94Zm-1.13-.58a4.32,4.32,0,0,0-.4-2.09A2.35,2.35,0,0,0,84.11,361a1.15,1.15,0,0,0-1.63.48l-.06,3.06A2.84,2.84,0,0,0,84,366.27a1.07,1.07,0,0,0,1.27-.18A2.79,2.79,0,0,0,85.77,364.24Zm4.9,2-3-1.17,0-1,3,1.17Zm1.2,4.06.2-9.53,2.5,1a5.71,5.71,0,0,1,2,1.36,6.06,6.06,0,0,1,1.33,2.1,6.7,6.7,0,0,1,.45,2.52l0,.61a4.17,4.17,0,0,1-.53,2.17,2.09,2.09,0,0,1-1.42,1,3.69,3.69,0,0,1-2.1-.27Zm1.35-8-.16,7.46,1.23.49a2.06,2.06,0,0,0,2.12-.08,2.8,2.8,0,0,0,.81-2.27v-.56a5.26,5.26,0,0,0-.66-2.8,4,4,0,0,0-2-1.7Zm9.39,12.39a4.4,4.4,0,0,1-2.16-1.8,5,5,0,0,1-.79-2.86v-.23a3.81,3.81,0,0,1,.41-1.73,1.89,1.89,0,0,1,1.08-.88,2.22,2.22,0,0,1,1.47.11,3.82,3.82,0,0,1,2,1.69,5.4,5.4,0,0,1,.65,2.89v.5l-4.46-1.76a3.62,3.62,0,0,0,.53,1.92,2.87,2.87,0,0,0,1.38,1.19,1.71,1.71,0,0,0,1,.13,1.54,1.54,0,0,0,.74-.4l.68.84A2,2,0,0,1,102.61,374.63Zm0-6.4a1.13,1.13,0,0,0-1.16.09,1.83,1.83,0,0,0-.6,1.26l3.3,1.3v-.09a3.26,3.26,0,0,0-.43-1.61A2.23,2.23,0,0,0,102.6,368.23Zm6,7,1.74-4.79,1.15.45L109,377l-.86-.34-2.23-8,1.15.45Zm6.47,4.34a4.49,4.49,0,0,1-2.16-1.8,5,5,0,0,1-.78-2.87v-.22a3.65,3.65,0,0,1,.41-1.73,1.83,1.83,0,0,1,1.08-.88,2.22,2.22,0,0,1,1.47.1,3.9,3.9,0,0,1,2,1.7,5.26,5.26,0,0,1,.66,2.88v.51l-4.46-1.76a3.65,3.65,0,0,0,.53,1.92,2.83,2.83,0,0,0,1.37,1.18,1.69,1.69,0,0,0,1,.14,1.48,1.48,0,0,0,.74-.41l.68.85A2,2,0,0,1,115.08,379.55Zm0-6.4a1.15,1.15,0,0,0-1.16.08,1.84,1.84,0,0,0-.6,1.27l3.3,1.3v-.09a3.23,3.23,0,0,0-.43-1.61A2.19,2.19,0,0,0,115.08,373.15Zm5.11,8.28-1.13-.45.21-10,1.13.44Zm1.58-3a3.64,3.64,0,0,1,.42-1.72,1.79,1.79,0,0,1,1.09-.87,2.49,2.49,0,0,1,1.56.16,4.39,4.39,0,0,1,2.15,1.86,5.44,5.44,0,0,1,.78,3v.09a3.54,3.54,0,0,1-.41,1.71,1.71,1.71,0,0,1-1.08.86,2.56,2.56,0,0,1-1.58-.16,4.44,4.44,0,0,1-2.15-1.86,5.42,5.42,0,0,1-.77-3Zm1.13.59a4.11,4.11,0,0,0,.47,2.09,2.65,2.65,0,0,0,1.34,1.25,1.2,1.2,0,0,0,1.38-.18,2.66,2.66,0,0,0,.55-1.83,4,4,0,0,0-.48-2.09,2.59,2.59,0,0,0-1.34-1.26,1.18,1.18,0,0,0-1.36.18A2.57,2.57,0,0,0,122.9,379Zm11.84,4.66A3.35,3.35,0,0,1,134,386a1.63,1.63,0,0,1-1.89.25,3.82,3.82,0,0,1-1.87-1.56l-.07,3.41-1.13-.45.21-9.8,1,.41,0,.81a1.74,1.74,0,0,1,1.93-.17,3.59,3.59,0,0,1,1.85,1.7,5.77,5.77,0,0,1,.64,2.95Zm-1.12-.58a4.24,4.24,0,0,0-.44-2.07,2.41,2.41,0,0,0-1.29-1.21,1.16,1.16,0,0,0-1.55.37l-.07,3.38a2.72,2.72,0,0,0,1.52,1.58,1.12,1.12,0,0,0,1.3-.18A2.78,2.78,0,0,0,133.62,383.09Zm3.69-2v.8a1.85,1.85,0,0,1,2-.15,3,3,0,0,1,1.85,1.88,1.58,1.58,0,0,1,.87-.49,2.27,2.27,0,0,1,1.26.18,3.24,3.24,0,0,1,2.15,3.34l-.1,4.74-1.13-.45.1-4.67A2.27,2.27,0,0,0,144,385a2.13,2.13,0,0,0-1.07-.8,1.17,1.17,0,0,0-1.05,0,1.1,1.1,0,0,0-.5.89l-.1,4.7-1.14-.45.1-4.63a2,2,0,0,0-1.37-2.1c-.74-.29-1.25-.15-1.54.41l-.11,5.17-1.12-.44.15-7.08Zm12.45,12.18a4.6,4.6,0,0,1-2.16-1.8,5.08,5.08,0,0,1-.78-2.87v-.22a3.65,3.65,0,0,1,.42-1.73,1.81,1.81,0,0,1,1.07-.88,2.22,2.22,0,0,1,1.47.1,3.92,3.92,0,0,1,2,1.7,5.34,5.34,0,0,1,.65,2.88v.51l-4.46-1.76a3.65,3.65,0,0,0,.53,1.92,2.85,2.85,0,0,0,1.38,1.18,1.65,1.65,0,0,0,1,.14,1.55,1.55,0,0,0,.74-.41l.68.85A2,2,0,0,1,149.76,393.22Zm0-6.4a1.15,1.15,0,0,0-1.16.08,1.86,1.86,0,0,0-.6,1.27l3.3,1.3v-.09a3.23,3.23,0,0,0-.43-1.61A2.19,2.19,0,0,0,149.76,386.82Zm5.1,1.14,0,.9a1.76,1.76,0,0,1,2-.24,3.19,3.19,0,0,1,2,3.36l-.1,4.68-1.12-.45.1-4.68a2.31,2.31,0,0,0-.31-1.26,1.93,1.93,0,0,0-1-.76,1.39,1.39,0,0,0-1-.07,1.31,1.31,0,0,0-.66.57l-.11,5.05-1.13-.45.15-7.07Zm7.38,1.18,0,1.71,1.23.48,0,.94-1.23-.48-.09,4.38a1.29,1.29,0,0,0,.15.71,1,1,0,0,0,.55.43,2.37,2.37,0,0,0,.54.13l0,1a3.25,3.25,0,0,1-.87-.21,2.1,2.1,0,0,1-1.12-.94,2.88,2.88,0,0,1-.36-1.54l.09-4.39-1.2-.47,0-.94,1.19.48,0-1.72Z" transform="translate(-57.16 -24.43)"/><path class="cls-15" d="M57.16,106.79,175.81,211.34l73.34-30Z" transform="translate(-57.16 -24.43)"/><path class="cls-16" d="M175.81,211.34,256,243V185.31l-6.85-4Z" transform="translate(-57.16 -24.43)"/></svg>