<svg width="398" height="414" viewBox="0 0 398 414" fill="none" xmlns="http://www.w3.org/2000/svg">
<path d="M0 334.7L198.838 413.215V156.936L0 82.3593V334.7Z" fill="#EBE9F5"/>
<path d="M0 334.855L198.838 413.216L397.676 334.7L198.838 252.341L0 334.855Z" fill="#324F86"/>
<path d="M0 316.667L198.838 395.027L397.676 316.512L198.838 234.153L0 316.667Z" fill="#7488B0"/>
<path d="M395.104 308.205C395.173 306.02 395.569 303.879 395.981 301.738L215.713 227.075L16.8926 309.589L215.73 387.95L396.919 316.4C395.543 314.001 395.027 310.724 395.104 308.205Z" fill="#2B354A"/>
<path d="M0 276.403L198.838 354.763L397.676 276.248L198.838 193.889L0 276.403Z" fill="#7488B0"/>
<path d="M392.369 260.081L215.722 186.914L16.8926 269.429L215.73 347.789L392.885 277.83C390.692 272.653 391.879 265.825 392.369 260.081Z" fill="#303C51"/>
<path d="M0 236.139L198.838 314.5L397.676 235.984L198.838 153.625L0 236.139Z" fill="#7488B0"/>
<path d="M198.838 160.883V413.215L397.676 334.7V82.3593L198.838 160.883Z" fill="#EBE9F5"/>
<path d="M0 82.5227L198.838 160.883L397.676 82.3593L198.838 0L0 82.5227Z" fill="#7488B0"/>
<path opacity="0.14" d="M0 294.488L16.8924 309.589L27.3254 305.255L0 294.488Z" fill="#2B354A"/>
<path d="M230.169 185.681L229.596 195.684L224.126 197.786L225.753 169.395L236.108 165.415C238.102 164.648 239.829 164.366 241.292 164.566C242.766 164.762 243.869 165.425 244.601 166.555C245.333 167.672 245.647 169.147 245.542 170.98C245.383 173.762 244.363 176.302 242.484 178.601C240.618 180.882 238.111 182.627 234.964 183.837L230.169 185.681ZM230.44 180.942L235.326 179.064C236.772 178.508 237.893 177.721 238.689 176.704C239.496 175.681 239.938 174.494 240.016 173.142C240.096 171.751 239.777 170.774 239.061 170.21C238.344 169.647 237.312 169.611 235.964 170.104L230.951 172.031L230.44 180.942ZM259.872 168.58C259.16 168.752 258.531 168.943 257.984 169.153C255.991 169.919 254.643 171.143 253.941 172.824L253.15 186.63L247.881 188.655L249.09 167.557L254.067 165.644L254.069 168.103C255.237 165.759 256.757 164.228 258.629 163.509C259.212 163.284 259.754 163.159 260.255 163.131L259.872 168.58ZM260.657 173.237C260.777 171.144 261.26 169.133 262.108 167.206C262.955 165.278 264.109 163.595 265.571 162.156C267.044 160.712 268.717 159.631 270.588 158.911C273.25 157.888 275.369 157.925 276.947 159.023C278.536 160.115 279.343 162.119 279.366 165.034L279.32 166.463C279.134 169.7 278.141 172.625 276.339 175.237C274.538 177.836 272.215 179.682 269.371 180.776C266.527 181.869 264.31 181.768 262.72 180.472C261.143 179.171 260.45 176.844 260.642 173.49L260.657 173.237ZM265.902 171.621C265.787 173.623 266.052 175.021 266.696 175.816C267.34 176.598 268.319 176.737 269.631 176.232C270.908 175.742 271.934 174.839 272.711 173.523C273.488 172.195 273.943 170.38 274.075 168.079C274.187 166.116 273.916 164.733 273.26 163.929C272.605 163.126 271.627 162.974 270.327 163.474C269.038 163.97 268.011 164.892 267.244 166.242C266.478 167.579 266.031 169.372 265.902 171.621ZM290.414 168.243C291.387 167.87 292.193 167.28 292.834 166.474C293.474 165.669 293.834 164.787 293.912 163.829L298.853 161.93C298.759 163.364 298.319 164.817 297.533 166.289C296.748 167.747 295.711 169.049 294.421 170.193C293.144 171.32 291.752 172.172 290.245 172.752C287.426 173.836 285.256 173.735 283.737 172.45C282.219 171.152 281.556 168.813 281.75 165.434L281.771 165.063C281.957 161.813 282.914 158.909 284.642 156.351C286.369 153.793 288.643 151.971 291.462 150.888C293.93 149.939 295.861 149.934 297.258 150.872C298.667 151.792 299.312 153.496 299.194 155.982L294.253 157.881C294.291 156.799 294.026 156.036 293.457 155.594C292.889 155.139 292.106 155.102 291.11 155.485C289.882 155.957 288.925 156.796 288.238 158.001C287.564 159.188 287.165 160.854 287.042 162.999L287.009 163.584C286.884 165.755 287.105 167.196 287.67 167.906C288.236 168.617 289.15 168.729 290.414 168.243ZM301.238 157.637C301.358 155.544 301.842 153.534 302.689 151.606C303.537 149.679 304.691 147.996 306.152 146.557C307.626 145.113 309.298 144.032 311.17 143.312C313.832 142.289 315.951 142.326 317.529 143.423C319.118 144.516 319.924 146.52 319.948 149.435L319.901 150.864C319.716 154.101 318.722 157.025 316.92 159.638C315.119 162.237 312.797 164.083 309.953 165.176C307.109 166.27 304.892 166.168 303.302 164.872C301.724 163.572 301.032 161.245 301.224 157.891L301.238 157.637ZM306.484 156.021C306.369 158.023 306.633 159.422 307.277 160.217C307.922 160.999 308.9 161.138 310.213 160.633C311.489 160.142 312.516 159.239 313.292 157.924C314.07 156.595 314.524 154.78 314.656 152.48C314.769 150.517 314.497 149.133 313.842 148.33C313.187 147.527 312.209 147.375 310.908 147.875C309.62 148.37 308.593 149.293 307.826 150.643C307.06 151.98 306.612 153.773 306.484 156.021ZM328.613 136.989L328.637 139.363C330.155 136.936 332.099 135.267 334.469 134.356C336.559 133.553 338.077 133.611 339.023 134.532C339.969 135.452 340.379 137.214 340.253 139.818L339.472 153.448L334.204 155.473L334.977 141.98C335.045 140.784 334.852 140.013 334.396 139.666C333.941 139.307 333.149 139.345 332.019 139.78C330.536 140.349 329.385 141.453 328.566 143.09L327.714 157.968L322.445 159.993L323.654 138.895L328.613 136.989Z" fill="#7488B0"/>
<path d="M124.117 85.5395L116.656 88.4888L101.352 81.8344L86.8032 87.5854L102.107 94.2397L94.6455 97.1889L58.9377 81.6621L66.3988 78.7129L80.8683 85.0047L95.4174 79.2537L80.9479 72.9619L88.409 70.0127L124.117 85.5395ZM137.771 80.1425L130.558 82.9934L92.8885 66.6134L100.101 63.7625L137.771 80.1425ZM151.3 74.7946L144.088 77.6455L106.418 61.2655L113.63 58.4146L151.3 74.7946ZM142.612 67.0115C139.98 65.8669 138.147 64.6436 137.115 63.3414C136.083 62.0393 135.965 60.7629 136.76 59.5121C137.572 58.2547 139.254 57.1214 141.808 56.1121C145.439 54.6768 149.494 53.9833 153.973 54.0315C158.468 54.0732 162.729 54.8592 166.754 56.3895L168.619 57.159C172.69 58.9292 174.808 60.8066 174.972 62.7911C175.12 64.7685 173.254 66.5239 169.374 68.0575C165.494 69.5911 161.167 70.2835 156.394 70.1346C151.637 69.9792 147.149 68.9844 142.931 67.1502L142.612 67.0115ZM150.314 64.3944C152.832 65.4892 155.242 66.1381 157.545 66.3409C159.831 66.5367 161.869 66.2806 163.66 65.5728C165.401 64.8847 166.106 64.0629 165.776 63.1074C165.43 62.1449 163.81 61.0345 160.916 59.7761C158.448 58.7026 156.046 58.0641 153.71 57.8607C151.375 57.6573 149.32 57.9063 147.546 58.6075C145.789 59.3022 145.108 60.1347 145.503 61.1049C145.882 62.068 147.486 63.1645 150.314 64.3944ZM171.24 107.083L150.707 94.1081L158.143 91.1687L185.818 109.871L178.307 112.84L148.526 104.783L166.518 117.5L159.007 120.468L115.266 108.117L122.703 105.177L152.961 114.267L133.571 100.881L139.888 98.3845L171.24 107.083ZM192.117 90.8706C191.008 91.2004 190.08 91.5128 189.334 91.8077C186.615 92.8825 185.74 93.9816 186.709 95.105L204.072 102.655L196.885 105.496L170.349 93.9577L177.139 91.2739L180.502 92.5709C179.508 90.9415 180.288 89.6221 182.841 88.6128C183.637 88.2982 184.489 88.0495 185.398 87.8667L192.117 90.8706ZM223.073 95.1445L215.861 97.9954L178.191 81.6154L185.404 78.7645L223.073 95.1445ZM214.434 87.3827C210.298 85.5841 207.94 83.7813 207.361 81.9743C206.799 80.1607 208.151 78.6084 211.417 77.3173C214.037 76.2818 217.165 75.846 220.802 76.0098L207.265 70.1233L214.477 67.2724L252.147 83.6524L245.656 86.2182L242.487 85.1294C242.904 86.797 241.703 88.1879 238.884 89.302C235.717 90.5538 231.946 91.0266 227.57 90.7205C223.195 90.4006 218.816 89.2881 214.434 87.3827ZM222.137 84.7656C224.622 85.8462 226.966 86.5008 229.169 86.7293C231.372 86.9578 233.311 86.7411 234.986 86.0792C237.207 85.201 237.85 84.1799 236.915 83.0161L226.443 78.4626C223.7 78.0131 221.226 78.2242 219.021 79.0959C215.556 80.4656 216.594 82.3555 222.137 84.7656ZM254.608 79.7885C253.48 79.298 252.946 78.7491 253.006 78.1419C253.082 77.5282 253.7 76.992 254.861 76.5332C256.038 76.0679 257.359 75.8373 258.825 75.8415C260.308 75.8392 261.613 76.0833 262.741 76.5739C263.853 77.0573 264.379 77.6026 264.319 78.2098C264.243 78.8099 263.608 79.3458 262.414 79.8177C261.237 80.283 259.924 80.5171 258.475 80.52C257.009 80.5158 255.72 80.272 254.608 79.7885Z" fill="#7D94C1"/>
<path d="M0 236.139V254.336L198.838 332.697V314.5L0 236.139Z" fill="#5774AF"/>
<path d="M0 276.291V294.488L198.838 372.849V354.652L0 276.291Z" fill="#5774AF"/>
<path d="M0 316.555V334.743L198.838 413.104V394.915L0 316.555Z" fill="#5774AF"/>
<path opacity="0.08" d="M0 294.488L16.8924 309.589L27.3254 305.255L0 294.488Z" fill="#2B354A"/>
<path opacity="0.08" d="M0 254.336L16.8924 269.437L27.3254 265.103L0 254.336Z" fill="#2B354A"/>
<path opacity="0.07" d="M0 82.3593L118.651 186.914L191.991 156.919L0 82.3593Z" fill="#2B354A"/>
<path opacity="0.54" d="M118.65 186.914L198.837 218.536V160.883L191.991 156.919L118.65 186.914Z" fill="#2B354A"/>
</svg>
