<svg width="398" height="414" viewBox="0 0 398 414" fill="none" xmlns="http://www.w3.org/2000/svg">
<path d="M0 334.7L198.838 413.215V156.936L0 82.3593V334.7Z" fill="#EBE9F5"/>
<path d="M0 334.855L198.838 413.216L397.676 334.7L198.838 252.341L0 334.855Z" fill="#324F86"/>
<path d="M0 316.667L198.838 395.027L397.676 316.512L198.838 234.153L0 316.667Z" fill="#D090AE"/>
<path d="M395.104 308.205C395.173 306.02 395.569 303.879 395.981 301.738L215.713 227.075L16.8926 309.589L215.73 387.95L396.919 316.4C395.543 314.001 395.027 310.724 395.104 308.205Z" fill="#2B354A"/>
<path d="M0 276.403L198.838 354.763L397.676 276.248L198.838 193.889L0 276.403Z" fill="#D090AE"/>
<path d="M392.369 260.081L215.722 186.914L16.8926 269.429L215.73 347.789L392.885 277.83C390.692 272.653 391.879 265.825 392.369 260.081Z" fill="#303C51"/>
<path d="M0 236.139L198.838 314.5L397.676 235.984L198.838 153.625L0 236.139Z" fill="#D090AE"/>
<path d="M198.838 160.883V413.215L397.676 334.7V82.3593L198.838 160.883Z" fill="#EBE9F5"/>
<path d="M0 82.5227L198.838 160.883L397.676 82.3593L198.838 0L0 82.5227Z" fill="#D090AE"/>
<path opacity="0.14" d="M0 294.488L16.8924 309.589L27.3254 305.255L0 294.488Z" fill="#2B354A"/>
<path d="M237.604 183.732C237.664 182.682 237.364 182.013 236.703 181.723C236.042 181.422 234.829 181.308 233.064 181.383C231.298 181.446 229.908 181.376 228.892 181.175C226.123 180.621 224.819 178.942 224.98 176.139C225.063 174.682 225.519 173.238 226.346 171.809C227.185 170.363 228.339 169.044 229.808 167.852C231.288 166.655 232.923 165.712 234.712 165.024C236.514 164.332 238.098 164.067 239.467 164.23C240.836 164.38 241.87 164.942 242.571 165.917C243.283 166.887 243.593 168.181 243.5 169.799L238.305 171.796C238.375 170.561 238.067 169.744 237.378 169.344C236.69 168.932 235.688 168.979 234.372 169.485C233.102 169.973 232.098 170.643 231.361 171.494C230.624 172.333 230.228 173.222 230.175 174.16C230.124 175.037 230.492 175.614 231.278 175.892C232.075 176.165 233.262 176.253 234.837 176.154C237.738 175.969 239.824 176.321 241.094 177.209C242.364 178.098 242.939 179.592 242.819 181.691C242.685 184.025 241.755 186.177 240.027 188.145C238.3 190.101 236.04 191.616 233.246 192.69C231.306 193.436 229.561 193.738 228.011 193.597C226.461 193.444 225.303 192.869 224.536 191.871C223.78 190.87 223.452 189.498 223.552 187.757L228.765 185.753C228.595 188.729 230.172 189.578 233.497 188.3C234.733 187.825 235.712 187.189 236.435 186.392C237.159 185.582 237.549 184.695 237.604 183.732ZM250.898 185.542L245.875 187.473L247.024 167.43L252.046 165.499L250.898 185.542ZM247.027 162.356C247.073 161.553 247.359 160.797 247.885 160.088C248.423 159.374 249.124 158.85 249.99 158.518C250.845 158.189 251.511 158.187 251.989 158.51C252.468 158.833 252.684 159.396 252.638 160.199C252.591 161.014 252.293 161.781 251.744 162.499C251.206 163.213 250.516 163.732 249.673 164.056C248.83 164.38 248.164 164.383 247.674 164.064C247.196 163.74 246.98 163.171 247.027 162.356ZM262.46 156.677L262.178 161.605L265.382 160.373L265.157 164.3L261.953 165.532L261.38 175.535C261.337 176.276 261.44 176.756 261.687 176.975C261.934 177.194 262.433 177.159 263.183 176.871C263.738 176.658 264.231 176.426 264.663 176.175L264.431 180.232C263.431 180.93 262.411 181.479 261.372 181.879C257.862 183.228 256.181 182.02 256.329 178.255L256.948 167.456L254.211 168.508L254.436 164.58L257.173 163.529L257.455 158.601L262.46 156.677ZM275.626 176.4C272.878 177.456 270.69 177.415 269.061 176.278C267.444 175.136 266.721 173.065 266.893 170.064L266.923 169.545C267.038 167.532 267.505 165.596 268.323 163.735C269.142 161.863 270.239 160.245 271.616 158.883C273.005 157.503 274.554 156.485 276.263 155.828C278.826 154.843 280.791 154.933 282.158 156.098C283.537 157.259 284.136 159.426 283.954 162.6L283.829 164.786L271.896 169.373C271.982 170.62 272.407 171.483 273.17 171.963C273.944 172.438 274.955 172.436 276.202 171.957C278.13 171.216 279.68 169.889 280.851 167.978L283.141 169.978C282.326 171.403 281.259 172.682 279.94 173.817C278.623 174.94 277.185 175.8 275.626 176.4ZM275.997 160.17C275.004 160.551 274.175 161.22 273.511 162.176C272.858 163.128 272.406 164.304 272.157 165.704L279.119 163.028L279.143 162.602C279.188 161.425 278.94 160.626 278.4 160.206C277.86 159.773 277.059 159.761 275.997 160.17ZM231.449 227.299L227.31 228.89L226.744 238.764L221.548 240.761L223.093 213.79L232.463 210.188C235.442 209.043 237.699 208.87 239.234 209.669C240.769 210.468 241.463 212.164 241.314 214.757C241.208 216.597 240.745 218.279 239.924 219.802C239.115 221.309 237.933 222.717 236.379 224.027L241.203 232.952L241.188 233.212L235.611 235.355L231.449 227.299ZM227.567 224.389L231.759 222.778C233.063 222.276 234.094 221.536 234.85 220.557C235.607 219.566 236.021 218.446 236.093 217.199C236.166 215.927 235.882 215.058 235.243 214.591C234.615 214.12 233.602 214.152 232.205 214.689L228.031 216.294L227.567 224.389ZM252.476 229.235C249.728 230.291 247.54 230.251 245.911 229.113C244.294 227.972 243.572 225.9 243.744 222.899L243.773 222.381C243.889 220.368 244.355 218.431 245.173 216.571C245.992 214.698 247.09 213.08 248.466 211.718C249.855 210.339 251.404 209.32 253.113 208.664C255.676 207.678 257.642 207.768 259.009 208.934C260.388 210.094 260.986 212.262 260.804 215.436L260.679 217.621L248.746 222.208C248.833 223.455 249.257 224.319 250.02 224.798C250.795 225.274 251.806 225.272 253.053 224.792C254.981 224.051 256.53 222.725 257.701 220.813L259.992 222.813C259.176 224.238 258.109 225.518 256.791 226.652C255.473 227.775 254.035 228.636 252.476 229.235ZM252.847 213.005C251.854 213.387 251.026 214.055 250.361 215.011C249.708 215.963 249.257 217.139 249.007 218.539L255.969 215.863L255.994 215.437C256.039 214.26 255.791 213.462 255.25 213.041C254.711 212.609 253.91 212.597 252.847 213.005ZM262.866 214.933C263.045 211.809 263.84 209.069 265.25 206.716C266.673 204.357 268.521 202.741 270.796 201.866C272.62 201.165 274.085 201.315 275.191 202.315L275.777 192.089L280.799 190.159L279.169 218.612L274.649 220.35L274.528 218.312C273.186 220.459 271.533 221.909 269.57 222.664C267.365 223.512 265.646 223.267 264.413 221.929C263.192 220.575 262.676 218.243 262.866 214.933ZM267.849 213.398C267.741 215.275 267.965 216.596 268.519 217.361C269.074 218.127 269.934 218.285 271.1 217.837C272.648 217.242 273.779 216.125 274.494 214.485L274.947 206.575C274.403 205.419 273.364 205.137 271.828 205.727C269.415 206.655 268.088 209.212 267.849 213.398ZM291.652 214.176C288.904 215.232 286.716 215.192 285.087 214.054C283.47 212.913 282.748 210.841 282.92 207.84L282.95 207.322C283.065 205.309 283.532 203.372 284.35 201.512C285.168 199.639 286.266 198.021 287.643 196.659C289.031 195.28 290.58 194.261 292.289 193.605C294.852 192.619 296.818 192.709 298.185 193.875C299.564 195.035 300.162 197.203 299.98 200.377L299.855 202.562L287.922 207.149C288.009 208.396 288.434 209.26 289.197 209.739C289.971 210.215 290.982 210.213 292.229 209.733C294.157 208.992 295.707 207.666 296.877 205.754L299.168 207.754C298.352 209.179 297.285 210.459 295.967 211.593C294.649 212.716 293.211 213.577 291.652 214.176ZM292.023 197.946C291.03 198.328 290.202 198.996 289.537 199.952C288.884 200.904 288.433 202.08 288.183 203.48L295.146 200.804L295.17 200.378C295.215 199.201 294.967 198.403 294.426 197.982C293.887 197.55 293.086 197.538 292.023 197.946ZM312.705 200.304C312.742 199.65 312.466 199.255 311.875 199.12C311.296 198.968 310.346 199.001 309.024 199.219C304.624 199.932 302.512 198.763 302.687 195.713C302.789 193.935 303.56 192.189 305.002 190.475C306.457 188.744 308.298 187.451 310.526 186.594C312.905 185.68 314.77 185.549 316.121 186.201C317.484 186.849 318.111 188.129 318.001 190.044L312.996 191.968C313.04 191.202 312.845 190.661 312.412 190.344C311.979 190.016 311.272 190.04 310.29 190.417C309.447 190.741 308.783 191.196 308.298 191.781C307.813 192.366 307.552 192.973 307.516 193.603C307.482 194.196 307.714 194.578 308.213 194.748C308.723 194.902 309.594 194.875 310.826 194.668C312.058 194.448 313.092 194.34 313.927 194.345C316.512 194.366 317.731 195.655 317.584 198.211C317.479 200.039 316.661 201.803 315.13 203.503C313.599 205.19 311.673 206.48 309.353 207.372C307.782 207.976 306.402 208.216 305.212 208.094C304.035 207.955 303.129 207.5 302.496 206.729C301.863 205.945 301.582 204.948 301.651 203.738L306.396 201.914C306.388 202.847 306.675 203.449 307.258 203.72C307.841 203.992 308.647 203.93 309.674 203.535C310.632 203.166 311.365 202.697 311.872 202.128C312.391 201.542 312.669 200.934 312.705 200.304ZM325.775 200.697L320.753 202.628L321.901 182.584L326.924 180.654L325.775 200.697ZM321.904 177.511C321.95 176.708 322.236 175.952 322.762 175.242C323.3 174.528 324.002 174.005 324.868 173.672C325.722 173.344 326.388 173.341 326.867 173.664C327.345 173.988 327.561 174.551 327.515 175.354C327.469 176.169 327.171 176.935 326.621 177.654C326.084 178.368 325.393 178.887 324.55 179.211C323.707 179.535 323.041 179.537 322.551 179.218C322.073 178.895 321.857 178.326 321.904 177.511ZM329.77 189.216C329.946 186.141 330.769 183.403 332.239 181.002C333.721 178.597 335.622 176.948 337.943 176.056C339.998 175.266 341.554 175.404 342.61 176.472L342.927 174.502L347.464 172.758L346.354 192.134C346.253 193.888 345.791 195.557 344.966 197.143C344.153 198.723 343.051 200.113 341.661 201.312C340.272 202.51 338.67 203.458 336.858 204.154C335.484 204.683 334.161 204.901 332.89 204.81C331.619 204.731 330.675 204.357 330.058 203.688L332.462 199.576C333.623 200.591 335.093 200.757 336.871 200.073C338.199 199.563 339.254 198.783 340.037 197.733C340.819 196.696 341.25 195.479 341.33 194.084L341.392 193.009C340.157 194.848 338.599 196.13 336.717 196.853C334.465 197.719 332.695 197.481 331.405 196.141C330.128 194.784 329.579 192.55 329.757 189.438L329.77 189.216ZM334.753 187.681C334.649 189.496 334.908 190.791 335.529 191.567C336.152 192.33 337.058 192.483 338.247 192.026C339.771 191.44 340.897 190.409 341.625 188.934L342.108 180.505C341.509 179.54 340.464 179.344 338.975 179.916C337.774 180.378 336.797 181.267 336.044 182.583C335.303 183.894 334.872 185.594 334.753 187.681ZM355.933 169.503L355.957 171.758C357.398 169.453 359.245 167.867 361.497 167.002C363.483 166.238 364.925 166.294 365.823 167.168C366.722 168.043 367.111 169.717 366.992 172.19L366.25 185.139L361.245 187.063L361.979 174.244C362.045 173.108 361.861 172.375 361.428 172.046C360.996 171.705 360.243 171.741 359.169 172.154C357.76 172.695 356.667 173.744 355.889 175.299L355.079 189.433L350.074 191.357L351.223 171.313L355.933 169.503Z" fill="#D090AE"/>
<path d="M124.117 85.5395L116.656 88.4888L101.352 81.8344L86.8032 87.5854L102.107 94.2397L94.6455 97.1889L58.9377 81.6621L66.3988 78.7129L80.8683 85.0047L95.4174 79.2537L80.9479 72.9619L88.409 70.0127L124.117 85.5395ZM137.771 80.1425L130.558 82.9934L92.8885 66.6134L100.101 63.7625L137.771 80.1425ZM151.3 74.7946L144.088 77.6455L106.418 61.2655L113.63 58.4146L151.3 74.7946ZM142.612 67.0115C139.98 65.8669 138.147 64.6436 137.115 63.3414C136.083 62.0393 135.965 60.7629 136.76 59.5121C137.572 58.2547 139.254 57.1214 141.808 56.1121C145.439 54.6768 149.494 53.9833 153.973 54.0315C158.468 54.0732 162.729 54.8592 166.754 56.3895L168.619 57.159C172.69 58.9292 174.808 60.8066 174.972 62.7911C175.12 64.7685 173.254 66.5239 169.374 68.0575C165.494 69.5911 161.167 70.2835 156.394 70.1346C151.637 69.9792 147.149 68.9844 142.931 67.1502L142.612 67.0115ZM150.314 64.3944C152.832 65.4892 155.242 66.1381 157.545 66.3409C159.831 66.5367 161.869 66.2806 163.66 65.5728C165.401 64.8847 166.106 64.0629 165.776 63.1074C165.43 62.1449 163.81 61.0345 160.916 59.7761C158.448 58.7026 156.046 58.0641 153.71 57.8607C151.375 57.6573 149.32 57.9063 147.546 58.6075C145.789 59.3022 145.108 60.1347 145.503 61.1049C145.882 62.068 147.486 63.1645 150.314 64.3944ZM171.24 107.083L150.707 94.1081L158.143 91.1687L185.818 109.871L178.307 112.84L148.526 104.783L166.518 117.5L159.007 120.468L115.266 108.117L122.703 105.177L152.961 114.267L133.571 100.881L139.888 98.3845L171.24 107.083ZM192.117 90.8706C191.008 91.2004 190.08 91.5128 189.334 91.8077C186.615 92.8825 185.74 93.9816 186.709 95.105L204.072 102.655L196.885 105.496L170.349 93.9577L177.139 91.2739L180.502 92.5709C179.508 90.9415 180.288 89.6221 182.841 88.6128C183.637 88.2982 184.489 88.0495 185.398 87.8667L192.117 90.8706ZM223.073 95.1445L215.861 97.9954L178.191 81.6154L185.404 78.7645L223.073 95.1445ZM214.434 87.3827C210.298 85.5841 207.94 83.7813 207.361 81.9743C206.799 80.1607 208.151 78.6084 211.417 77.3173C214.037 76.2818 217.165 75.846 220.802 76.0098L207.265 70.1233L214.477 67.2724L252.147 83.6524L245.656 86.2182L242.487 85.1294C242.904 86.797 241.703 88.1879 238.884 89.302C235.717 90.5538 231.946 91.0266 227.57 90.7205C223.195 90.4006 218.816 89.2881 214.434 87.3827ZM222.137 84.7656C224.622 85.8462 226.966 86.5008 229.169 86.7293C231.372 86.9578 233.311 86.7411 234.986 86.0792C237.207 85.201 237.85 84.1799 236.915 83.0161L226.443 78.4626C223.7 78.0131 221.226 78.2242 219.021 79.0959C215.556 80.4656 216.594 82.3555 222.137 84.7656ZM254.608 79.7885C253.48 79.298 252.946 78.7491 253.006 78.1419C253.082 77.5282 253.7 76.992 254.861 76.5332C256.038 76.0679 257.359 75.8373 258.825 75.8415C260.308 75.8392 261.613 76.0833 262.741 76.5739C263.853 77.0573 264.379 77.6026 264.319 78.2098C264.243 78.8099 263.608 79.3458 262.414 79.8177C261.237 80.283 259.924 80.5171 258.475 80.52C257.009 80.5158 255.72 80.272 254.608 79.7885Z" fill="#E49EBF"/>
<path d="M0 236.139V254.336L198.838 332.697V314.5L0 236.139Z" fill="#BD6E93"/>
<path d="M0 276.291V294.488L198.838 372.849V354.652L0 276.291Z" fill="#BD6E93"/>
<path d="M0 316.555V334.743L198.838 413.104V394.915L0 316.555Z" fill="#BD6E93"/>
<path opacity="0.08" d="M0 294.488L16.8924 309.589L27.3254 305.255L0 294.488Z" fill="#2B354A"/>
<path opacity="0.08" d="M0 254.336L16.8924 269.437L27.3254 265.103L0 254.336Z" fill="#2B354A"/>
<path opacity="0.07" d="M0 82.3593L118.651 186.914L191.991 156.919L0 82.3593Z" fill="#2B354A"/>
</svg>
