<svg width="398" height="414" viewBox="0 0 398 414" fill="none" xmlns="http://www.w3.org/2000/svg">
<path d="M0 334.7L198.838 413.215V156.936L0 82.3593V334.7Z" fill="#EBE9F5"/>
<path d="M0 334.855L198.838 413.216L397.676 334.7L198.838 252.341L0 334.855Z" fill="#324F86"/>
<path d="M0 316.667L198.838 395.027L397.676 316.512L198.838 234.153L0 316.667Z" fill="#425986"/>
<path d="M395.104 308.205C395.173 306.02 395.569 303.879 395.981 301.738L215.713 227.075L16.8926 309.589L215.73 387.95L396.919 316.4C395.543 314.001 395.027 310.724 395.104 308.205Z" fill="#2B354A"/>
<path d="M0 276.403L198.838 354.763L397.676 276.248L198.838 193.889L0 276.403Z" fill="#425986"/>
<path d="M392.369 260.081L215.722 186.914L16.8926 269.429L215.73 347.789L392.885 277.83C390.692 272.653 391.879 265.825 392.369 260.081Z" fill="#303C51"/>
<path d="M0 236.139L198.838 314.5L397.676 235.984L198.838 153.625L0 236.139Z" fill="#425986"/>
<path d="M198.838 160.883V413.215L397.676 334.7V82.3593L198.838 160.883Z" fill="#EBE9F5"/>
<path d="M0 82.5227L198.838 160.883L397.676 82.3593L198.838 0L0 82.5227Z" fill="#425986"/>
<path opacity="0.14" d="M0 294.488L16.8924 309.589L27.3254 305.255L0 294.488Z" fill="#2B354A"/>
<path d="M232.014 165.859L237.089 182.033L244.254 161.154L250.719 158.669L249.255 184.221L244.316 186.12L244.716 179.135L245.899 166.889L238.36 188.409L234.98 189.708L229.638 173.157L229.441 185.007L229.041 191.992L224.118 193.884L225.582 168.332L232.014 165.859ZM262.744 172.84L269.26 151.543L274.74 149.436L264.957 178.186L259.821 180.16L253 157.793L258.463 155.693L262.744 172.84ZM294.552 158.485C294.208 161.306 293.133 163.837 291.325 166.076C289.528 168.311 287.229 169.967 284.429 171.044C281.366 172.221 279.018 172.048 277.382 170.526C275.759 168.987 275.058 166.294 275.278 162.444L275.368 160.883C275.508 158.426 276.037 156.106 276.954 153.923C277.871 151.74 279.107 149.863 280.662 148.292C282.229 146.706 284.008 145.53 285.999 144.765C288.756 143.705 290.931 143.641 292.525 144.573C294.119 145.505 294.965 147.348 295.064 150.102L290.142 151.994C290.116 150.391 289.753 149.363 289.051 148.912C288.361 148.445 287.261 148.502 285.752 149.082C284.111 149.713 282.844 150.817 281.951 152.396C281.07 153.959 280.543 156.067 280.37 158.72L280.259 160.65C280.101 163.411 280.373 165.28 281.077 166.257C281.792 167.229 282.991 167.392 284.676 166.744C286.196 166.16 287.349 165.356 288.135 164.333C288.933 163.294 289.431 161.976 289.63 160.378L294.552 158.485ZM240.957 220.095C240.614 222.915 239.538 225.446 237.73 227.685C235.933 229.921 233.635 231.576 230.835 232.653C227.772 233.83 225.423 233.658 223.788 232.135C222.164 230.596 221.463 227.903 221.683 224.053L221.773 222.492C221.914 220.035 222.442 217.715 223.359 215.532C224.276 213.349 225.512 211.472 227.068 209.901C228.635 208.315 230.414 207.139 232.405 206.374C235.161 205.314 237.336 205.25 238.93 206.182C240.524 207.114 241.371 208.957 241.47 211.711L236.547 213.603C236.522 212 236.158 210.972 235.456 210.521C234.766 210.054 233.667 210.111 232.157 210.691C230.516 211.322 229.25 212.426 228.357 214.005C227.476 215.568 226.948 217.676 226.775 220.329L226.664 222.259C226.506 225.02 226.779 226.889 227.482 227.866C228.197 228.838 229.396 229.001 231.081 228.353C232.601 227.769 233.755 226.965 234.541 225.942C235.338 224.903 235.836 223.585 236.035 221.987L240.957 220.095ZM253.678 223.529C253.485 223.157 253.359 222.65 253.299 222.009C252.072 223.82 250.54 225.078 248.703 225.785C246.963 226.453 245.55 226.47 244.463 225.835C243.387 225.196 242.896 224.057 242.99 222.419C243.106 220.407 243.889 218.596 245.34 216.985C246.801 215.371 248.851 214.051 251.487 213.026L253.67 212.187L253.732 211.099C253.782 210.222 253.609 209.602 253.213 209.239C252.827 208.873 252.181 208.864 251.273 209.213C250.474 209.52 249.834 209.966 249.351 210.552C248.879 211.134 248.622 211.782 248.581 212.496L243.84 214.318C243.903 213.219 244.278 212.079 244.966 210.899C245.654 209.719 246.593 208.643 247.783 207.671C248.973 206.687 250.29 205.918 251.734 205.363C253.922 204.522 255.622 204.446 256.834 205.136C258.057 205.81 258.608 207.211 258.486 209.34L258.015 217.571C257.922 219.369 258.079 220.641 258.486 221.389L258.469 221.687L253.678 223.529ZM249.958 221.509C250.658 221.24 251.313 220.828 251.923 220.273C252.533 219.707 252.996 219.088 253.313 218.417L253.5 215.153L251.728 215.834C249.354 216.747 248.04 218.11 247.787 219.924L247.753 220.228C247.717 220.86 247.895 221.301 248.287 221.55C248.679 221.8 249.236 221.786 249.958 221.509ZM266.41 218.635L261.652 220.464L263.196 193.508L267.955 191.679L266.41 218.635ZM277.929 210.551C278.804 210.215 279.53 209.684 280.106 208.959C280.683 208.234 281.006 207.44 281.077 206.578L285.524 204.869C285.439 206.16 285.043 207.467 284.336 208.792C283.63 210.105 282.696 211.276 281.535 212.306C280.386 213.32 279.133 214.087 277.777 214.609C275.239 215.584 273.287 215.494 271.92 214.337C270.553 213.169 269.957 211.064 270.131 208.022L270.15 207.689C270.318 204.764 271.179 202.15 272.734 199.848C274.288 197.545 276.335 195.906 278.872 194.931C281.093 194.077 282.832 194.073 284.088 194.917C285.357 195.745 285.937 197.278 285.83 199.516L281.384 201.225C281.418 200.251 281.18 199.565 280.668 199.166C280.156 198.757 279.452 198.724 278.555 199.069C277.45 199.494 276.589 200.248 275.97 201.332C275.363 202.401 275.005 203.9 274.894 205.831L274.864 206.357C274.752 208.311 274.95 209.608 275.459 210.248C275.968 210.887 276.792 210.988 277.929 210.551ZM298.598 204.374C297.34 206.345 295.678 207.728 293.61 208.522C291.707 209.254 290.286 209.228 289.346 208.445C288.418 207.658 288.008 206.139 288.115 203.89L288.828 191.447L293.57 189.624L292.867 201.891C292.754 203.869 293.539 204.533 295.224 203.886C296.832 203.268 297.971 202.246 298.641 200.822L299.411 187.379L304.169 185.55L303.081 204.538L298.618 206.254L298.598 204.374ZM311.663 201.24L306.904 203.069L308.449 176.113L313.207 174.284L311.663 201.24ZM325.872 195.778C325.679 195.406 325.553 194.899 325.493 194.259C324.266 196.069 322.734 197.327 320.896 198.034C319.157 198.702 317.744 198.719 316.657 198.084C315.581 197.445 315.09 196.307 315.184 194.669C315.299 192.656 316.083 190.845 317.533 189.235C318.995 187.62 321.044 186.3 323.681 185.275L325.864 184.436L325.926 183.348C325.976 182.471 325.803 181.851 325.407 181.488C325.021 181.122 324.374 181.113 323.467 181.462C322.668 181.769 322.027 182.215 321.545 182.801C321.073 183.383 320.816 184.031 320.775 184.745L316.033 186.567C316.096 185.468 316.472 184.328 317.16 183.148C317.848 181.968 318.787 180.892 319.977 179.92C321.167 178.936 322.484 178.167 323.928 177.612C326.116 176.771 327.815 176.695 329.028 177.385C330.251 178.059 330.802 179.46 330.68 181.59L330.208 189.82C330.116 191.618 330.273 192.89 330.68 193.638L330.663 193.936L325.872 195.778ZM322.152 193.758C322.852 193.489 323.507 193.077 324.117 192.522C324.727 191.956 325.19 191.337 325.507 190.667L325.694 187.402L323.922 188.083C321.548 188.996 320.234 190.359 319.981 192.173L319.947 192.477C319.911 193.109 320.089 193.55 320.481 193.8C320.873 194.049 321.43 194.035 322.152 193.758ZM340.632 166.969L340.365 171.637L343.4 170.47L343.187 174.19L340.152 175.357L339.608 184.834C339.568 185.536 339.665 185.991 339.899 186.198C340.134 186.406 340.606 186.373 341.317 186.099C341.842 185.898 342.309 185.678 342.719 185.44L342.499 189.284C341.551 189.945 340.586 190.465 339.601 190.844C336.276 192.122 334.683 190.978 334.823 187.411L335.41 177.18L332.817 178.177L333.03 174.456L335.623 173.46L335.89 168.791L340.632 166.969ZM344.277 179.246C344.385 177.363 344.82 175.553 345.583 173.819C346.346 172.084 347.385 170.569 348.7 169.274C350.026 167.975 351.531 167.001 353.216 166.354C355.611 165.433 357.519 165.466 358.938 166.454C360.369 167.437 361.095 169.241 361.116 171.864L361.074 173.15C360.907 176.063 360.013 178.696 358.391 181.047C356.77 183.386 354.68 185.048 352.12 186.032C349.561 187.015 347.565 186.924 346.135 185.758C344.715 184.587 344.091 182.493 344.264 179.474L344.277 179.246ZM348.998 177.792C348.895 179.594 349.133 180.852 349.712 181.568C350.292 182.272 351.173 182.397 352.354 181.943C353.503 181.501 354.427 180.688 355.126 179.504C355.825 178.308 356.235 176.675 356.353 174.604C356.455 172.838 356.21 171.593 355.621 170.87C355.031 170.147 354.151 170.01 352.98 170.46C351.821 170.906 350.896 171.736 350.206 172.951C349.517 174.154 349.114 175.768 348.998 177.792ZM374.253 163.262C373.613 163.416 373.047 163.588 372.555 163.777C370.761 164.467 369.548 165.568 368.915 167.081L368.203 179.506L363.462 181.329L364.55 162.34L369.029 160.618L369.03 162.832C370.082 160.723 371.45 159.345 373.135 158.697C373.66 158.495 374.147 158.382 374.598 158.358L374.253 163.262Z" fill="#425986"/>
<path d="M124.117 85.5395L116.656 88.4888L101.352 81.8344L86.8032 87.5854L102.107 94.2397L94.6455 97.1889L58.9377 81.6621L66.3988 78.7129L80.8683 85.0047L95.4174 79.2537L80.9479 72.9619L88.409 70.0127L124.117 85.5395ZM137.771 80.1425L130.558 82.9934L92.8885 66.6134L100.101 63.7625L137.771 80.1425ZM151.3 74.7946L144.088 77.6455L106.418 61.2655L113.63 58.4146L151.3 74.7946ZM142.612 67.0115C139.98 65.8669 138.147 64.6436 137.115 63.3414C136.083 62.0393 135.965 60.7629 136.76 59.5121C137.572 58.2547 139.254 57.1214 141.808 56.1121C145.439 54.6768 149.494 53.9833 153.973 54.0315C158.468 54.0732 162.729 54.8592 166.754 56.3895L168.619 57.159C172.69 58.9292 174.808 60.8066 174.972 62.7911C175.12 64.7685 173.254 66.5239 169.374 68.0575C165.494 69.5911 161.167 70.2835 156.394 70.1346C151.637 69.9792 147.149 68.9844 142.931 67.1502L142.612 67.0115ZM150.314 64.3944C152.832 65.4892 155.242 66.1381 157.545 66.3409C159.831 66.5367 161.869 66.2806 163.66 65.5728C165.401 64.8847 166.106 64.0629 165.776 63.1074C165.43 62.1449 163.81 61.0345 160.916 59.7761C158.448 58.7026 156.046 58.0641 153.71 57.8607C151.375 57.6573 149.32 57.9063 147.546 58.6075C145.789 59.3022 145.108 60.1347 145.503 61.1049C145.882 62.068 147.486 63.1645 150.314 64.3944ZM171.24 107.083L150.707 94.1081L158.143 91.1687L185.818 109.871L178.307 112.84L148.526 104.783L166.518 117.5L159.007 120.468L115.266 108.117L122.703 105.177L152.961 114.267L133.571 100.881L139.888 98.3845L171.24 107.083ZM192.117 90.8706C191.008 91.2004 190.08 91.5128 189.334 91.8077C186.615 92.8825 185.74 93.9816 186.709 95.105L204.072 102.655L196.885 105.496L170.349 93.9577L177.139 91.2739L180.502 92.5709C179.508 90.9415 180.288 89.6221 182.841 88.6128C183.637 88.2982 184.489 88.0495 185.398 87.8667L192.117 90.8706ZM223.073 95.1445L215.861 97.9954L178.191 81.6154L185.404 78.7645L223.073 95.1445ZM214.434 87.3827C210.298 85.5841 207.94 83.7813 207.361 81.9743C206.799 80.1607 208.151 78.6084 211.417 77.3173C214.037 76.2818 217.165 75.846 220.802 76.0098L207.265 70.1233L214.477 67.2724L252.147 83.6524L245.656 86.2182L242.487 85.1294C242.904 86.797 241.703 88.1879 238.884 89.302C235.717 90.5538 231.946 91.0266 227.57 90.7205C223.195 90.4006 218.816 89.2881 214.434 87.3827ZM222.137 84.7656C224.622 85.8462 226.966 86.5008 229.169 86.7293C231.372 86.9578 233.311 86.7411 234.986 86.0792C237.207 85.201 237.85 84.1799 236.915 83.0161L226.443 78.4626C223.7 78.0131 221.226 78.2242 219.021 79.0959C215.556 80.4656 216.594 82.3555 222.137 84.7656ZM254.608 79.7885C253.48 79.298 252.946 78.7491 253.006 78.1419C253.082 77.5282 253.7 76.992 254.861 76.5332C256.038 76.0679 257.359 75.8373 258.825 75.8415C260.308 75.8392 261.613 76.0833 262.741 76.5739C263.853 77.0573 264.379 77.6026 264.319 78.2098C264.243 78.8099 263.608 79.3458 262.414 79.8177C261.237 80.283 259.924 80.5171 258.475 80.52C257.009 80.5158 255.72 80.272 254.608 79.7885Z" fill="#4C68A0"/>
<path d="M0 236.139V254.336L198.838 332.697V314.5L0 236.139Z" fill="#354D7A"/>
<path d="M0 276.291V294.488L198.838 372.849V354.652L0 276.291Z" fill="#354D7A"/>
<path d="M0 316.555V334.743L198.838 413.104V394.915L0 316.555Z" fill="#354D7A"/>
<path opacity="0.08" d="M0 294.488L16.8924 309.589L27.3254 305.255L0 294.488Z" fill="#2B354A"/>
<path opacity="0.08" d="M0 254.336L16.8924 269.437L27.3254 265.103L0 254.336Z" fill="#2B354A"/>
<path opacity="0.07" d="M0 82.3593L118.651 186.914L191.991 156.919L0 82.3593Z" fill="#2B354A"/>
<path opacity="0.54" d="M118.65 186.914L198.837 218.536V160.883L191.991 156.919L118.65 186.914Z" fill="#2B354A"/>
</svg>
