<svg width="398" height="414" viewBox="0 0 398 414" fill="none" xmlns="http://www.w3.org/2000/svg">
<path d="M0 334.7L198.838 413.215V156.936L0 82.3593V334.7Z" fill="#EBE9F5"/>
<path d="M0 334.855L198.838 413.216L397.676 334.7L198.838 252.341L0 334.855Z" fill="#324F86"/>
<path d="M0 316.667L198.838 395.027L397.676 316.512L198.838 234.153L0 316.667Z" fill="#CD7093"/>
<path d="M395.104 308.205C395.173 306.02 395.569 303.879 395.981 301.738L215.713 227.075L16.8926 309.589L215.73 387.95L396.919 316.4C395.543 314.001 395.027 310.724 395.104 308.205Z" fill="#2B354A"/>
<path d="M0 276.403L198.838 354.763L397.676 276.248L198.838 193.889L0 276.403Z" fill="#CD7093"/>
<path d="M392.369 260.081L215.722 186.914L16.8926 269.429L215.73 347.789L392.885 277.83C390.692 272.653 391.879 265.825 392.369 260.081Z" fill="#303C51"/>
<path d="M0 236.139L198.838 314.5L397.676 235.984L198.838 153.625L0 236.139Z" fill="#CD7093"/>
<path d="M198.838 160.883V413.215L397.676 334.7V82.3593L198.838 160.883Z" fill="#EBE9F5"/>
<path d="M0 82.5227L198.838 160.883L397.676 82.3593L198.838 0L0 82.5227Z" fill="#D87D9F"/>
<path opacity="0.14" d="M0 294.488L16.8924 309.589L27.3254 305.255L0 294.488Z" fill="#2B354A"/>
<path d="M241.229 189.305C241.305 187.979 240.926 187.133 240.091 186.767C239.257 186.386 237.725 186.243 235.494 186.338C233.265 186.417 231.508 186.329 230.225 186.075C226.727 185.375 225.08 183.254 225.283 179.713C225.389 177.872 225.964 176.05 227.009 174.244C228.069 172.418 229.527 170.752 231.382 169.245C233.251 167.733 235.316 166.543 237.577 165.674C239.852 164.799 241.854 164.465 243.582 164.67C245.311 164.86 246.619 165.57 247.504 166.801C248.403 168.027 248.795 169.661 248.678 171.705L242.115 174.227C242.204 172.667 241.814 171.635 240.944 171.13C240.075 170.61 238.81 170.669 237.147 171.308C235.543 171.925 234.275 172.771 233.343 173.846C232.412 174.906 231.913 176.028 231.845 177.214C231.781 178.321 232.246 179.05 233.239 179.401C234.246 179.746 235.744 179.857 237.734 179.733C241.399 179.499 244.034 179.943 245.638 181.065C247.243 182.188 247.969 184.075 247.817 186.727C247.648 189.675 246.472 192.392 244.29 194.879C242.109 197.35 239.254 199.263 235.724 200.62C233.274 201.562 231.07 201.944 229.112 201.766C227.154 201.573 225.691 200.846 224.722 199.586C223.768 198.32 223.354 196.588 223.48 194.388L230.064 191.857C229.849 195.617 231.842 196.689 236.042 195.075C237.602 194.475 238.84 193.671 239.753 192.664C240.667 191.641 241.159 190.522 241.229 189.305ZM260.726 159.705L260.369 165.929L264.417 164.373L264.132 169.334L260.085 170.889L259.361 183.525C259.307 184.461 259.437 185.067 259.749 185.344C260.061 185.621 260.691 185.577 261.639 185.212C262.339 184.943 262.962 184.65 263.508 184.334L263.215 189.458C261.952 190.34 260.664 191.034 259.351 191.538C254.918 193.242 252.794 191.717 252.981 186.961L253.763 173.32L250.306 174.648L250.59 169.688L254.047 168.359L254.404 162.135L260.726 159.705ZM265.586 176.075C265.73 173.563 266.31 171.151 267.327 168.838C268.344 166.525 269.729 164.505 271.483 162.778C273.251 161.046 275.258 159.748 277.504 158.885C280.698 157.657 283.241 157.701 285.134 159.018C287.042 160.329 288.009 162.734 288.037 166.232L287.982 167.947C287.759 171.831 286.567 175.34 284.405 178.475C282.243 181.594 279.456 183.81 276.043 185.122C272.631 186.434 269.97 186.312 268.062 184.757C266.169 183.196 265.338 180.404 265.569 176.379L265.586 176.075ZM271.88 174.136C271.743 176.538 272.06 178.216 272.833 179.17C273.606 180.109 274.781 180.275 276.356 179.67C277.887 179.081 279.119 177.997 280.051 176.419C280.984 174.824 281.529 172.647 281.687 169.886C281.822 167.53 281.497 165.87 280.71 164.906C279.924 163.942 278.751 163.76 277.19 164.36C275.644 164.954 274.411 166.062 273.491 167.681C272.572 169.286 272.035 171.437 271.88 174.136ZM301.295 170.083C302.462 169.635 303.43 168.927 304.198 167.96C304.967 166.994 305.398 165.935 305.493 164.785L311.422 162.506C311.309 164.228 310.781 165.972 309.838 167.738C308.896 169.488 307.651 171.05 306.104 172.423C304.571 173.774 302.901 174.798 301.092 175.493C297.709 176.794 295.105 176.673 293.283 175.131C291.46 173.574 290.666 170.767 290.898 166.711L290.924 166.267C291.147 162.367 292.295 158.882 294.368 155.812C296.441 152.742 299.169 150.557 302.553 149.256C305.514 148.118 307.832 148.112 309.507 149.237C311.199 150.342 311.973 152.386 311.83 155.37L305.902 157.649C305.948 156.35 305.629 155.435 304.947 154.904C304.265 154.357 303.326 154.314 302.13 154.774C300.657 155.34 299.508 156.346 298.683 157.792C297.874 159.216 297.396 161.216 297.249 163.79L297.208 164.492C297.059 167.097 297.324 168.826 298.002 169.678C298.681 170.531 299.779 170.666 301.295 170.083ZM323.709 156.41L321.295 159.718L320.852 167.44L314.53 169.87L316.589 133.929L322.912 131.499L321.771 151.411L323.092 149.256L329.588 139.322L337.179 136.404L328.021 150.245L336.472 161.436L329.209 164.228L323.709 156.41ZM231.524 223.135L238.29 244.699L247.845 216.862L256.464 213.548L254.512 247.617L247.927 250.149L248.461 240.836L250.038 224.508L239.986 253.201L235.479 254.934L228.357 232.865L228.093 248.665L227.559 257.978L220.996 260.501L222.949 226.431L231.524 223.135ZM273.545 240.301C273.288 239.805 273.12 239.13 273.04 238.276C271.404 240.689 269.361 242.367 266.911 243.309C264.592 244.2 262.708 244.223 261.259 243.376C259.824 242.524 259.17 241.006 259.295 238.822C259.449 236.139 260.493 233.724 262.427 231.577C264.376 229.424 267.109 227.664 270.624 226.298L273.534 225.179L273.617 223.729C273.684 222.559 273.453 221.732 272.925 221.249C272.411 220.76 271.549 220.748 270.338 221.213C269.273 221.622 268.419 222.218 267.775 222.999C267.146 223.775 266.804 224.639 266.75 225.59L260.427 228.021C260.511 226.554 261.012 225.035 261.929 223.461C262.847 221.888 264.099 220.454 265.685 219.157C267.272 217.846 269.028 216.82 270.953 216.08C273.87 214.958 276.137 214.858 277.753 215.777C279.384 216.676 280.119 218.544 279.956 221.383L279.327 232.358C279.204 234.754 279.414 236.451 279.956 237.448L279.933 237.846L273.545 240.301ZM268.586 237.608C269.519 237.249 270.392 236.7 271.205 235.961C272.018 235.205 272.636 234.381 273.058 233.486L273.307 229.134L270.945 230.042C267.78 231.259 266.028 233.076 265.69 235.494L265.645 235.901C265.597 236.743 265.834 237.331 266.357 237.664C266.88 237.997 267.623 237.978 268.586 237.608ZM298.237 212.251C297.384 212.457 296.629 212.686 295.973 212.938C293.581 213.858 291.964 215.326 291.12 217.344L290.171 233.91L283.849 236.341L285.3 211.023L291.272 208.727L291.274 211.678C292.676 208.866 294.5 207.028 296.746 206.165C297.446 205.896 298.097 205.745 298.698 205.712L298.237 212.251ZM309.392 216.59L306.978 219.898L306.535 227.62L300.213 230.05L302.272 194.109L308.595 191.679L307.454 211.592L308.775 209.436L315.271 199.502L322.862 196.584L313.704 210.425L322.155 221.616L314.892 224.408L309.392 216.59ZM334.576 217.299C331.105 218.633 328.341 218.582 326.284 217.145C324.241 215.703 323.329 213.087 323.546 209.296L323.583 208.641C323.729 206.098 324.319 203.652 325.352 201.302C326.386 198.937 327.772 196.893 329.511 195.172C331.266 193.43 333.222 192.144 335.381 191.314C338.619 190.07 341.101 190.183 342.828 191.655C344.57 193.122 345.326 195.859 345.096 199.868L344.938 202.629L329.865 208.423C329.974 209.998 330.511 211.089 331.474 211.695C332.453 212.295 333.729 212.293 335.304 211.687C337.74 210.751 339.697 209.076 341.177 206.661L344.07 209.187C343.04 210.987 341.692 212.603 340.027 214.037C338.362 215.455 336.545 216.542 334.576 217.299ZM335.045 196.798C333.791 197.28 332.744 198.125 331.905 199.332C331.08 200.534 330.51 202.02 330.194 203.789L338.989 200.408L339.02 199.87C339.076 198.383 338.763 197.375 338.081 196.844C337.399 196.298 336.387 196.282 335.045 196.798ZM357.325 177.25L356.968 183.474L361.016 181.918L360.731 186.879L356.684 188.434L355.96 201.07C355.906 202.006 356.036 202.612 356.348 202.889C356.66 203.165 357.29 203.122 358.238 202.757C358.938 202.488 359.561 202.195 360.107 201.879L359.813 207.003C358.551 207.885 357.263 208.578 355.95 209.083C351.516 210.787 349.393 209.262 349.58 204.506L350.362 190.865L346.905 192.193L347.189 187.233L350.646 185.904L351.003 179.68L357.325 177.25ZM236.178 302.477L224.671 306.9L222.081 314.761L215.102 317.443L228.911 278.816L234.993 276.478L244.964 305.964L237.985 308.647L236.178 302.477ZM226.768 300.533L234.732 297.472L231.459 286.258L226.768 300.533ZM268.494 284.769C268.27 288.668 267.26 292.116 265.462 295.11C263.68 298.084 261.381 300.111 258.566 301.193C256.175 302.113 254.293 301.967 252.922 300.754L252.238 312.688L245.916 315.118L247.924 280.066L253.787 277.813L253.864 280.209C255.508 277.655 257.562 275.904 260.027 274.956C262.944 273.835 265.146 274.118 266.632 275.804C268.119 277.491 268.746 280.362 268.514 284.418L268.494 284.769ZM262.199 286.708C262.334 284.352 262.045 282.686 261.33 281.71C260.631 280.728 259.537 280.523 258.049 281.094C256.066 281.857 254.656 283.192 253.819 285.1L253.225 295.466C253.902 296.838 255.233 297.143 257.216 296.381C260.235 295.22 261.896 291.996 262.199 286.708ZM293.74 275.064C293.516 278.964 292.506 282.411 290.708 285.406C288.926 288.379 286.627 290.407 283.812 291.489C281.421 292.409 279.539 292.262 278.168 291.05L277.484 302.984L271.162 305.414L273.17 270.362L279.033 268.108L279.11 270.505C280.754 267.95 282.808 266.2 285.273 265.252C288.19 264.131 290.392 264.413 291.878 266.1C293.365 267.786 293.992 270.657 293.76 274.713L293.74 275.064ZM287.445 277.003C287.58 274.648 287.291 272.982 286.576 272.005C285.877 271.023 284.783 270.818 283.295 271.39C281.312 272.152 279.902 273.488 279.065 275.396L278.471 285.762C279.148 287.134 280.479 287.439 282.462 286.676C285.481 285.516 287.142 282.291 287.445 277.003Z" fill="#D87D9F"/>
<path d="M124.117 85.5395L116.656 88.4888L101.352 81.8344L86.8032 87.5854L102.107 94.2397L94.6455 97.1889L58.9377 81.6621L66.3988 78.7129L80.8683 85.0047L95.4174 79.2537L80.9479 72.9619L88.409 70.0127L124.117 85.5395ZM137.771 80.1425L130.558 82.9934L92.8885 66.6134L100.101 63.7625L137.771 80.1425ZM151.3 74.7946L144.088 77.6455L106.418 61.2655L113.63 58.4146L151.3 74.7946ZM142.612 67.0115C139.98 65.8669 138.147 64.6436 137.115 63.3414C136.083 62.0393 135.965 60.7629 136.76 59.5121C137.572 58.2547 139.254 57.1214 141.808 56.1121C145.439 54.6768 149.494 53.9833 153.973 54.0315C158.468 54.0732 162.729 54.8592 166.754 56.3895L168.619 57.159C172.69 58.9292 174.808 60.8066 174.972 62.7911C175.12 64.7685 173.254 66.5239 169.374 68.0575C165.494 69.5911 161.167 70.2835 156.394 70.1346C151.637 69.9792 147.149 68.9844 142.931 67.1502L142.612 67.0115ZM150.314 64.3944C152.832 65.4892 155.242 66.1381 157.545 66.3409C159.831 66.5367 161.869 66.2806 163.66 65.5728C165.401 64.8847 166.106 64.0629 165.776 63.1074C165.43 62.1449 163.81 61.0345 160.916 59.7761C158.448 58.7026 156.046 58.0641 153.71 57.8607C151.375 57.6573 149.32 57.9063 147.546 58.6075C145.789 59.3022 145.108 60.1347 145.503 61.1049C145.882 62.068 147.486 63.1645 150.314 64.3944ZM171.24 107.083L150.707 94.1081L158.143 91.1687L185.818 109.871L178.307 112.84L148.526 104.783L166.518 117.5L159.007 120.468L115.266 108.117L122.703 105.177L152.961 114.267L133.571 100.881L139.888 98.3845L171.24 107.083ZM192.117 90.8706C191.008 91.2004 190.08 91.5128 189.334 91.8077C186.615 92.8825 185.74 93.9816 186.709 95.105L204.072 102.655L196.885 105.496L170.349 93.9577L177.139 91.2739L180.502 92.5709C179.508 90.9415 180.288 89.6221 182.841 88.6128C183.637 88.2982 184.489 88.0495 185.398 87.8667L192.117 90.8706ZM223.073 95.1445L215.861 97.9954L178.191 81.6154L185.404 78.7645L223.073 95.1445ZM214.434 87.3827C210.298 85.5841 207.94 83.7813 207.361 81.9743C206.799 80.1607 208.151 78.6084 211.417 77.3173C214.037 76.2818 217.165 75.846 220.802 76.0098L207.265 70.1233L214.477 67.2724L252.147 83.6524L245.656 86.2182L242.487 85.1294C242.904 86.797 241.703 88.1879 238.884 89.302C235.717 90.5538 231.946 91.0266 227.57 90.7205C223.195 90.4006 218.816 89.2881 214.434 87.3827ZM222.137 84.7656C224.622 85.8462 226.966 86.5008 229.169 86.7293C231.372 86.9578 233.311 86.7411 234.986 86.0792C237.207 85.201 237.85 84.1799 236.915 83.0161L226.443 78.4626C223.7 78.0131 221.226 78.2242 219.021 79.0959C215.556 80.4656 216.594 82.3555 222.137 84.7656ZM254.608 79.7885C253.48 79.298 252.946 78.7491 253.006 78.1419C253.082 77.5282 253.7 76.992 254.861 76.5332C256.038 76.0679 257.359 75.8373 258.825 75.8415C260.308 75.8392 261.613 76.0833 262.741 76.5739C263.853 77.0573 264.379 77.6026 264.319 78.2098C264.243 78.8099 263.608 79.3458 262.414 79.8177C261.237 80.283 259.924 80.5171 258.475 80.52C257.009 80.5158 255.72 80.272 254.608 79.7885Z" fill="#EBA5BF"/>
<path d="M0 236.139V254.336L198.838 332.697V314.5L0 236.139Z" fill="#D25484"/>
<path d="M0 276.291V294.488L198.838 372.849V354.652L0 276.291Z" fill="#D25484"/>
<path d="M0 316.555V334.743L198.838 413.104V394.915L0 316.555Z" fill="#D25484"/>
<path opacity="0.08" d="M0 294.488L16.8924 309.589L27.3254 305.255L0 294.488Z" fill="#2B354A"/>
<path opacity="0.08" d="M0 254.336L16.8924 269.437L27.3254 265.103L0 254.336Z" fill="#2B354A"/>
<path opacity="0.07" d="M0 82.3593L118.651 186.914L191.991 156.919L0 82.3593Z" fill="#2B354A"/>
<path opacity="0.54" d="M118.651 186.914L198.838 218.536V160.883L191.992 156.919L118.651 186.914Z" fill="#2B354A"/>
</svg>
