<svg width="398" height="414" viewBox="0 0 398 414" fill="none" xmlns="http://www.w3.org/2000/svg">
<path d="M0 334.7L198.838 413.215V156.936L0 82.3593V334.7Z" fill="#EBE9F5"/>
<path d="M0 334.855L198.838 413.216L397.676 334.7L198.838 252.341L0 334.855Z" fill="#324F86"/>
<path d="M0 316.667L198.838 395.027L397.676 316.512L198.838 234.153L0 316.667Z" fill="#213660"/>
<path d="M395.104 308.205C395.173 306.02 395.569 303.879 395.981 301.738L215.713 227.075L16.8926 309.589L215.73 387.95L396.919 316.4C395.543 314.001 395.027 310.724 395.104 308.205Z" fill="#2B354A"/>
<path d="M0 276.403L198.838 354.763L397.676 276.248L198.838 193.889L0 276.403Z" fill="#213660"/>
<path d="M392.369 260.081L215.722 186.914L16.8926 269.429L215.73 347.789L392.885 277.83C390.692 272.653 391.879 265.825 392.369 260.081Z" fill="#303C51"/>
<path d="M0 236.139L198.838 314.5L397.676 235.984L198.838 153.625L0 236.139Z" fill="#213660"/>
<path d="M198.838 160.883V413.215L397.676 334.7V82.3593L198.838 160.883Z" fill="#EBE9F5"/>
<path d="M0 82.5227L198.838 160.883L397.676 82.3593L198.838 0L0 82.5227Z" fill="#213660"/>
<path opacity="0.14" d="M0 294.488L16.8924 309.589L27.3254 305.255L0 294.488Z" fill="#2B354A"/>
<path d="M249.803 166.993L240.046 170.743L238.42 199.126L231.857 201.649L233.483 173.266L223.857 176.966L224.183 171.28L250.129 161.307L249.803 166.993ZM246.728 183.324C246.872 180.812 247.452 178.4 248.469 176.087C249.486 173.774 250.871 171.754 252.625 170.027C254.393 168.295 256.4 166.997 258.646 166.134C261.84 164.906 264.384 164.95 266.276 166.267C268.184 167.578 269.152 169.983 269.179 173.481L269.124 175.196C268.901 179.08 267.709 182.589 265.547 185.724C263.385 188.843 260.598 191.059 257.185 192.371C253.773 193.682 251.112 193.561 249.205 192.006C247.311 190.445 246.48 187.653 246.711 183.628L246.728 183.324ZM253.022 181.385C252.885 183.787 253.202 185.465 253.975 186.419C254.748 187.358 255.923 187.524 257.498 186.919C259.029 186.33 260.261 185.246 261.193 183.668C262.126 182.073 262.671 179.896 262.83 177.134C262.965 174.779 262.639 173.119 261.853 172.155C261.066 171.191 259.893 171.009 258.332 171.609C256.786 172.203 255.553 173.31 254.633 174.93C253.714 176.535 253.177 178.686 253.022 181.385ZM293.42 168.991L297.451 151.675L303.554 149.329L296.066 176.968L290.771 179.003L287.2 164.792L281.802 182.451L276.53 184.477L271.942 161.48L278.046 159.134L280.208 174.047L285.462 156.283L290.034 154.526L293.42 168.991ZM312.524 145.881L312.553 148.73C314.375 145.818 316.707 143.815 319.551 142.722C322.06 141.758 323.882 141.828 325.016 142.933C326.151 144.037 326.643 146.152 326.493 149.276L325.556 165.632L319.233 168.062L320.161 151.87C320.243 150.435 320.011 149.51 319.464 149.094C318.919 148.663 317.967 148.709 316.611 149.23C314.832 149.914 313.451 151.238 312.468 153.202L311.445 171.056L305.123 173.486L306.573 148.168L312.524 145.881ZM238.026 245.213C238.102 243.887 237.722 243.041 236.887 242.676C236.053 242.295 234.521 242.151 232.291 242.246C230.061 242.325 228.305 242.237 227.021 241.983C223.524 241.283 221.877 239.163 222.08 235.621C222.185 233.781 222.76 231.958 223.805 230.153C224.865 228.326 226.323 226.66 228.178 225.154C230.048 223.642 232.113 222.451 234.373 221.582C236.648 220.708 238.65 220.373 240.379 220.578C242.108 220.768 243.415 221.478 244.3 222.709C245.2 223.935 245.591 225.569 245.474 227.613L238.911 230.136C239 228.576 238.61 227.543 237.741 227.039C236.872 226.518 235.606 226.578 233.943 227.217C232.339 227.833 231.071 228.679 230.139 229.754C229.209 230.814 228.709 231.937 228.641 233.122C228.578 234.23 229.042 234.959 230.035 235.31C231.042 235.655 232.541 235.765 234.53 235.641C238.195 235.407 240.83 235.851 242.434 236.974C244.039 238.096 244.765 239.983 244.613 242.635C244.444 245.583 243.269 248.301 241.087 250.787C238.905 253.258 236.05 255.172 232.521 256.528C230.07 257.47 227.866 257.852 225.908 257.674C223.951 257.481 222.488 256.754 221.519 255.494C220.564 254.229 220.15 252.496 220.276 250.297L226.861 247.766C226.646 251.525 228.638 252.597 232.838 250.983C234.399 250.383 235.636 249.579 236.549 248.572C237.464 247.55 237.956 246.43 238.026 245.213ZM247.9 237.55C248.128 233.572 249.132 230.112 250.912 227.17C252.707 224.222 255.049 222.193 257.936 221.083C260.474 220.108 262.435 220.369 263.818 221.866L264.385 219.062L269.942 216.926L267.933 251.978L261.589 254.417L262.272 242.507C260.712 244.83 258.751 246.446 256.388 247.354C253.573 248.436 251.394 248.129 249.851 246.434C248.308 244.739 247.658 241.778 247.9 237.55ZM254.194 235.611C254.056 238.029 254.344 239.718 255.059 240.679C255.789 241.635 256.876 241.835 258.32 241.28C260.259 240.534 261.678 239.18 262.575 237.218L263.174 226.759C262.478 225.471 261.167 225.196 259.242 225.936C257.783 226.497 256.617 227.563 255.742 229.135C254.867 230.707 254.352 232.866 254.194 235.611ZM287.803 232.303C286.126 234.931 283.909 236.775 281.153 237.835C278.615 238.81 276.72 238.776 275.468 237.731C274.23 236.682 273.683 234.657 273.826 231.658L274.777 215.068L281.099 212.637L280.162 228.993C280.011 231.63 281.058 232.516 283.304 231.653C285.448 230.829 286.967 229.467 287.86 227.567L288.887 209.644L295.232 207.205L293.781 232.523L287.83 234.81L287.803 232.303ZM312.267 225.417C312.01 224.921 311.842 224.245 311.763 223.391C310.127 225.805 308.083 227.483 305.633 228.424C303.314 229.316 301.43 229.338 299.981 228.492C298.547 227.64 297.892 226.122 298.017 223.938C298.171 221.255 299.215 218.84 301.149 216.692C303.098 214.54 305.831 212.78 309.347 211.413L312.256 210.295L312.339 208.844C312.406 207.674 312.176 206.847 311.647 206.364C311.133 205.875 310.271 205.863 309.06 206.329C307.996 206.738 307.141 207.333 306.497 208.115C305.868 208.891 305.526 209.754 305.472 210.706L299.149 213.136C299.233 211.67 299.734 210.15 300.652 208.577C301.569 207.004 302.821 205.569 304.407 204.273C305.994 202.961 307.75 201.935 309.675 201.195C312.592 200.074 314.859 199.973 316.475 200.893C318.107 201.791 318.841 203.66 318.678 206.499L318.049 217.473C317.926 219.87 318.136 221.567 318.678 222.564L318.655 222.961L312.267 225.417ZM307.308 222.723C308.241 222.365 309.114 221.816 309.927 221.076C310.74 220.321 311.358 219.496 311.78 218.602L312.03 214.249L309.667 215.157C306.502 216.374 304.75 218.192 304.412 220.61L304.368 221.016C304.319 221.858 304.557 222.446 305.08 222.779C305.602 223.112 306.345 223.093 307.308 222.723ZM336.959 197.367C336.106 197.572 335.351 197.802 334.695 198.054C332.303 198.973 330.686 200.442 329.843 202.459L328.893 219.026L322.571 221.456L324.022 196.138L329.994 193.842L329.996 196.794C331.398 193.982 333.222 192.144 335.468 191.281C336.168 191.011 336.819 190.861 337.42 190.828L336.959 197.367ZM349.365 211.614C345.894 212.948 343.13 212.897 341.073 211.461C339.03 210.019 338.117 207.402 338.335 203.612L338.372 202.956C338.518 200.414 339.107 197.967 340.141 195.617C341.175 193.252 342.561 191.209 344.3 189.488C346.055 187.745 348.011 186.459 350.17 185.63C353.407 184.385 355.89 184.499 357.617 185.971C359.359 187.437 360.115 190.175 359.885 194.184L359.727 196.945L344.653 202.739C344.763 204.314 345.299 205.404 346.263 206.01C347.241 206.61 348.518 206.608 350.093 206.002C352.529 205.066 354.486 203.391 355.965 200.976L358.859 203.503C357.829 205.302 356.481 206.919 354.815 208.352C353.151 209.77 351.334 210.857 349.365 211.614ZM349.834 191.113C348.58 191.595 347.533 192.44 346.693 193.648C345.869 194.85 345.298 196.335 344.983 198.104L353.778 194.723L353.809 194.185C353.865 192.699 353.552 191.69 352.869 191.159C352.188 190.613 351.176 190.598 349.834 191.113Z" fill="#213660"/>
<path d="M124.117 85.5395L116.656 88.4888L101.352 81.8344L86.8032 87.5854L102.107 94.2397L94.6455 97.1889L58.9377 81.6621L66.3988 78.7129L80.8683 85.0047L95.4174 79.2537L80.9479 72.9619L88.409 70.0127L124.117 85.5395ZM137.771 80.1425L130.558 82.9934L92.8885 66.6134L100.101 63.7625L137.771 80.1425ZM151.3 74.7946L144.088 77.6455L106.418 61.2655L113.63 58.4146L151.3 74.7946ZM142.612 67.0115C139.98 65.8669 138.147 64.6436 137.115 63.3414C136.083 62.0393 135.965 60.7629 136.76 59.5121C137.572 58.2547 139.254 57.1214 141.808 56.1121C145.439 54.6768 149.494 53.9833 153.973 54.0315C158.468 54.0732 162.729 54.8592 166.754 56.3895L168.619 57.159C172.69 58.9292 174.808 60.8066 174.972 62.7911C175.12 64.7685 173.254 66.5239 169.374 68.0575C165.494 69.5911 161.167 70.2835 156.394 70.1346C151.637 69.9792 147.149 68.9844 142.931 67.1502L142.612 67.0115ZM150.314 64.3944C152.832 65.4892 155.242 66.1381 157.545 66.3409C159.831 66.5367 161.869 66.2806 163.66 65.5728C165.401 64.8847 166.106 64.0629 165.776 63.1074C165.43 62.1449 163.81 61.0345 160.916 59.7761C158.448 58.7026 156.046 58.0641 153.71 57.8607C151.375 57.6573 149.32 57.9063 147.546 58.6075C145.789 59.3022 145.108 60.1347 145.503 61.1049C145.882 62.068 147.486 63.1645 150.314 64.3944ZM171.24 107.083L150.707 94.1081L158.143 91.1687L185.818 109.871L178.307 112.84L148.526 104.783L166.518 117.5L159.007 120.468L115.266 108.117L122.703 105.177L152.961 114.267L133.571 100.881L139.888 98.3845L171.24 107.083ZM192.117 90.8706C191.008 91.2004 190.08 91.5128 189.334 91.8077C186.615 92.8825 185.74 93.9816 186.709 95.105L204.072 102.655L196.885 105.496L170.349 93.9577L177.139 91.2739L180.502 92.5709C179.508 90.9415 180.288 89.6221 182.841 88.6128C183.637 88.2982 184.489 88.0495 185.398 87.8667L192.117 90.8706ZM223.073 95.1445L215.861 97.9954L178.191 81.6154L185.404 78.7645L223.073 95.1445ZM214.434 87.3827C210.298 85.5841 207.94 83.7813 207.361 81.9743C206.799 80.1607 208.151 78.6084 211.417 77.3173C214.037 76.2818 217.165 75.846 220.802 76.0098L207.265 70.1233L214.477 67.2724L252.147 83.6524L245.656 86.2182L242.487 85.1294C242.904 86.797 241.703 88.1879 238.884 89.302C235.717 90.5538 231.946 91.0266 227.57 90.7205C223.195 90.4006 218.816 89.2881 214.434 87.3827ZM222.137 84.7656C224.622 85.8462 226.966 86.5008 229.169 86.7293C231.372 86.9578 233.311 86.7411 234.986 86.0792C237.207 85.201 237.85 84.1799 236.915 83.0161L226.443 78.4626C223.7 78.0131 221.226 78.2242 219.021 79.0959C215.556 80.4656 216.594 82.3555 222.137 84.7656ZM254.608 79.7885C253.48 79.298 252.946 78.7491 253.006 78.1419C253.082 77.5282 253.7 76.992 254.861 76.5332C256.038 76.0679 257.359 75.8373 258.825 75.8415C260.308 75.8392 261.613 76.0833 262.741 76.5739C263.853 77.0573 264.379 77.6026 264.319 78.2098C264.243 78.8099 263.608 79.3458 262.414 79.8177C261.237 80.283 259.924 80.5171 258.475 80.52C257.009 80.5158 255.72 80.272 254.608 79.7885Z" fill="#29457E"/>
<path d="M0 236.139V254.336L198.838 332.697V314.5L0 236.139Z" fill="#172A51"/>
<path d="M0 276.291V294.488L198.838 372.849V354.652L0 276.291Z" fill="#172A51"/>
<path d="M0 316.555V334.743L198.838 413.104V394.915L0 316.555Z" fill="#172A51"/>
<path opacity="0.08" d="M0 294.488L16.8924 309.589L27.3254 305.255L0 294.488Z" fill="#2B354A"/>
<path opacity="0.08" d="M0 254.336L16.8924 269.437L27.3254 265.103L0 254.336Z" fill="#2B354A"/>
<path opacity="0.07" d="M0 82.3593L118.651 186.914L191.991 156.919L0 82.3593Z" fill="#2B354A"/>
<path opacity="0.54" d="M118.65 186.914L198.837 218.536V160.883L191.991 156.919L118.65 186.914Z" fill="#2B354A"/>
</svg>
